<?xml version="1.0" encoding="UTF-8"?>
<svg version="1.1" xmlns="http://www.w3.org/2000/svg" width="512" height="512">
<path d="M0 0 C1.02927701 -0.00657338 1.02927701 -0.00657338 2.07934749 -0.01327956 C4.3899677 -0.02668636 6.70054975 -0.03285068 9.01119995 -0.03897095 C10.66352003 -0.04687061 12.31583838 -0.05513947 13.96815491 -0.06375122 C19.40550077 -0.08999304 24.8428544 -0.10528371 30.28024292 -0.11953735 C32.15164063 -0.12489666 34.02303828 -0.13027417 35.89443588 -0.13566971 C43.68021286 -0.15730401 51.46598775 -0.17603978 59.25178719 -0.1872921 C70.40982964 -0.20352364 81.56752342 -0.23667577 92.72543442 -0.29369295 C100.57012089 -0.33241175 108.4147142 -0.35192725 116.25949371 -0.35721266 C120.94469071 -0.36086424 125.62951601 -0.37286434 130.31460953 -0.4053154 C134.72568195 -0.43542923 139.13615844 -0.44169616 143.54731178 -0.42993164 C145.1629833 -0.42971116 146.77868272 -0.43799491 148.3942585 -0.45558548 C163.56548556 -0.61172678 163.56548556 -0.61172678 168.92860699 3.6483326 C175.3740897 10.25505564 174.9580911 16.61936286 174.86740112 25.47714233 C174.86791051 26.82304555 174.87017001 28.16894905 174.8740387 29.5148468 C174.87943787 33.1531491 174.86010356 36.7909383 174.83593774 40.42914867 C174.8145846 44.2407233 174.81523431 48.05229718 174.81324768 51.86392212 C174.80680995 58.25933625 174.78559597 64.65455843 174.75411987 71.04989624 C174.71376165 79.26075852 174.69642022 87.47149608 174.68681049 95.68244553 C174.67851296 102.74487714 174.66128022 109.80728233 174.64177299 116.8696909 C174.63772401 118.38511102 174.63398445 119.900532 174.63055062 121.41595364 C174.62076648 125.73255398 174.6062795 130.04907964 174.58371162 134.36563301 C174.57466527 136.29847618 174.5704114 138.2313399 174.56628418 140.16419983 C174.55912888 141.31094681 174.55197357 142.45769379 174.54460144 143.63919067 C174.53819122 145.13683268 174.53819122 145.13683268 174.5316515 146.66473007 C174.39743042 149.15390015 174.39743042 149.15390015 173.39743042 152.15390015 C174.21676867 154.29509143 174.21676867 154.29509143 175.57321167 156.5640564 C176.06676147 157.45794067 176.56031128 158.35182495 177.06881714 159.27279663 C177.61038452 160.24418579 178.1519519 161.21557495 178.70993042 162.21640015 C189.42683072 182.15463568 196.87671239 202.98664512 201.39743042 225.15390015 C201.60625854 226.13713257 201.81508667 227.12036499 202.03024292 228.13339233 C214.29478103 288.00063926 201.16790413 352.73730254 168.25289917 403.93515015 C161.4057692 414.22624489 153.77507342 424.00268096 145.35055542 433.0484314 C143.58514795 434.95154065 141.92991262 436.9073875 140.27243042 438.90390015 C108.70005102 475.00750066 61.69951875 498.33748291 15.39743042 508.15390015 C14.40404663 508.36707886 13.41066284 508.58025757 12.38717651 508.79989624 C-15.90509074 514.58872457 -48.28958241 515.01906018 -76.60256958 509.15390015 C-77.48493286 508.9822937 -78.36729614 508.81068726 -79.27639771 508.63388062 C-122.49270496 500.13791297 -161.8681657 480.01725313 -194.27835083 450.23202515 C-195.86803118 448.81066389 -197.50737459 447.4434708 -199.18460083 446.1265564 C-201.40000368 444.31915989 -203.15085922 442.52899719 -204.97756958 440.34140015 C-207.18155686 437.7085582 -209.48705331 435.27201308 -211.94241333 432.8765564 C-215.5590551 429.28336823 -218.71234718 425.46289043 -221.79006958 421.40390015 C-222.62308594 420.30634399 -222.62308594 420.30634399 -223.47293091 419.18661499 C-254.82897508 377.22752826 -272.6396108 326.63970858 -271.60256958 274.15390015 C-272.16129761 274.17484741 -272.72002563 274.19579468 -273.29568481 274.21737671 C-275.87695631 274.30156308 -278.45793782 274.35287708 -281.04006958 274.40390015 C-281.91856567 274.43741577 -282.79706177 274.4709314 -283.70217896 274.50546265 C-290.59276361 274.60716869 -296.97542596 273.46204239 -302.22927856 268.67025757 C-305.9579773 264.38341406 -306.72626081 261.0576654 -306.75646973 255.5320282 C-306.76507019 254.36148392 -306.77367065 253.19093964 -306.78253174 251.98492432 C-306.78679169 250.69917511 -306.79105164 249.4134259 -306.79544067 248.0887146 C-306.80334378 246.72195732 -306.81161286 245.35520212 -306.82022095 243.9884491 C-306.84642037 239.49804674 -306.86174806 235.00763517 -306.87600708 230.5171814 C-306.88136791 228.96988609 -306.88674542 227.42259083 -306.89213943 225.87529564 C-306.91376651 219.43713978 -306.93250171 212.9989864 -306.94376183 206.56080341 C-306.95999134 197.34265226 -306.99314643 188.12492325 -307.05016267 178.90693122 C-307.08890806 172.42102442 -307.10840002 165.93523029 -307.11368239 159.44921082 C-307.11733005 155.5777732 -307.12928781 151.70678604 -307.16178513 147.83547401 C-307.19194679 144.19013626 -307.19814942 140.54551959 -307.18640137 136.90008354 C-307.1860768 134.93349311 -307.21048938 132.96694665 -307.23577881 131.0005188 C-307.18574268 123.87482252 -306.73792092 118.42435289 -301.60256958 113.15390015 C-296.74631798 108.98565007 -292.07152059 108.61991124 -285.87600708 108.84603882 C-285.03101151 108.85979553 -284.18601593 108.87355225 -283.31541443 108.88772583 C-281.48962182 108.91844683 -279.66395504 108.95757365 -277.83850098 109.00426292 C-274.93510957 109.07287226 -272.03327398 109.10664243 -269.12918091 109.12956238 C-260.87624228 109.1959084 -252.6252466 109.28392772 -244.37454224 109.49301147 C-239.31472938 109.61869949 -234.25866594 109.66935402 -229.19735718 109.67348671 C-227.28348159 109.68887927 -225.36960206 109.73128145 -223.45700073 109.80278587 C-211.52441114 110.26107172 -211.52441114 110.26107172 -201.22781372 104.91235352 C-197.97040406 101.81475514 -195.08847662 98.46608751 -192.23431396 94.99944496 C-187.77523609 89.95611334 -182.02552114 86.09371422 -176.60256958 82.15390015 C-175.99896606 81.71126831 -175.39536255 81.26863647 -174.77346802 80.81259155 C-127.99119811 46.77243127 -75.65761549 34.16836255 -18.60256958 35.15390015 C-18.62351685 34.55964233 -18.64446411 33.96538452 -18.66604614 33.3531189 C-18.74998812 30.6202231 -18.80147239 27.88759957 -18.85256958 25.15390015 C-18.88608521 24.21932983 -18.91960083 23.28475952 -18.95413208 22.3218689 C-19.0415198 16.07364679 -18.27247943 11.32374606 -14.60256958 6.15390015 C-9.91460365 1.34462877 -6.63862747 0.02997692 0 0 Z " fill="#94CBD3" transform="translate(306.6025695800781,-0.153900146484375)"/>
<path d="M0 0 C1.02927701 -0.00657338 1.02927701 -0.00657338 2.07934749 -0.01327956 C4.3899677 -0.02668636 6.70054975 -0.03285068 9.01119995 -0.03897095 C10.66352003 -0.04687061 12.31583838 -0.05513947 13.96815491 -0.06375122 C19.40550077 -0.08999304 24.8428544 -0.10528371 30.28024292 -0.11953735 C32.15164063 -0.12489666 34.02303828 -0.13027417 35.89443588 -0.13566971 C43.68021286 -0.15730401 51.46598775 -0.17603978 59.25178719 -0.1872921 C70.40982964 -0.20352364 81.56752342 -0.23667577 92.72543442 -0.29369295 C100.57012089 -0.33241175 108.4147142 -0.35192725 116.25949371 -0.35721266 C120.94469071 -0.36086424 125.62951601 -0.37286434 130.31460953 -0.4053154 C134.72568195 -0.43542923 139.13615844 -0.44169616 143.54731178 -0.42993164 C145.1629833 -0.42971116 146.77868272 -0.43799491 148.3942585 -0.45558548 C163.56406639 -0.61171217 163.56406639 -0.61171217 168.92891693 3.64802265 C175.33814093 10.22031923 174.98186828 16.58477494 174.94674683 25.39779663 C174.9554522 26.73559705 174.96582221 28.07338751 174.97772217 29.41116333 C175.004405 33.02905247 175.00567076 36.64652254 175.00059557 40.26449084 C174.99844966 43.29125172 175.00823926 46.31792892 175.01780641 49.34467179 C175.03996271 56.48825809 175.04089061 63.63163403 175.02877808 70.77523804 C175.01669709 78.13103752 175.04133034 85.48607203 175.08391821 92.84174103 C175.11920638 99.17066664 175.13114432 105.49934936 175.12464273 111.82836968 C175.12102578 115.60251664 175.12619989 119.37611773 175.15407181 123.15017509 C175.17931314 126.70055017 175.17526511 130.24973676 175.14925003 133.8000946 C175.1423007 135.71412791 175.16481383 137.62819822 175.18838501 139.542099 C175.10657726 146.26942123 174.45005728 150.48438989 169.96489525 155.63449192 C162.84089576 162.54007808 154.80664164 161.81324748 145.45993042 161.90390015 C143.99830696 161.93209242 142.53671596 161.96202436 141.07516479 161.9937439 C137.51607197 162.06722553 133.95711266 162.1170353 130.39743042 162.15390015 C130.99708618 162.86385132 131.59674194 163.57380249 132.21456909 164.30526733 C148.00048983 183.24517831 153.61672668 202.57061294 151.39743042 227.15390015 C149.62829338 239.7154562 145.13693353 254.07480154 136.22224808 263.43868732 C129.36039428 270.78362476 128.13193235 275.97721916 128.45504761 285.85189819 C128.46579904 287.19025111 128.47246468 288.52864203 128.47540283 289.86703491 C128.49018796 292.72713623 128.53308198 295.58486737 128.59868622 298.44425011 C128.70212349 302.97134044 128.73966505 307.49758931 128.76882935 312.02568054 C128.82851009 320.00153995 128.94365583 327.97587033 129.07089233 335.95089722 C129.2617806 347.96373219 129.40447204 359.97710384 129.50183988 371.99105102 C129.54029098 376.48629235 129.60605747 380.98004121 129.69415998 385.47457349 C129.73227554 387.59800561 129.75891759 389.7212208 129.78063965 391.84487915 C129.80748264 394.42570612 129.85246153 397.00643826 129.91955566 399.58653259 C129.95751433 406.69066141 129.29827919 411.77102753 124.39743042 417.15390015 C119.03995956 421.33272742 115.31870562 422.27823348 108.62203979 422.24813843 C107.20207744 422.24535157 105.78211486 422.24268172 104.3621521 422.2401123 C103.60981796 422.23706211 102.85748383 422.23401192 102.08235168 422.23086929 C98.08056017 422.21949101 94.07887998 422.24004697 90.07711792 422.25546265 C84.9925977 422.27369936 79.90868115 422.28257849 74.82418823 422.25350952 C70.70944741 422.23082746 66.59601702 422.24258713 62.48136902 422.27651596 C60.92187367 422.28323918 59.36227093 422.27773292 57.8028717 422.25915909 C47.57492062 422.14526682 40.60269225 423.49675265 32.39743042 430.15390015 C31.79541306 430.5966478 31.19339569 431.03939545 30.57313538 431.49555969 C29.04960498 432.61609594 27.56582868 433.79009801 26.08493042 434.96640015 C19.95064237 439.77231406 13.67448148 444.3364477 7.29342651 448.80819702 C5.23370519 450.27010585 3.20074536 451.76552389 1.16696167 453.26327515 C-0.25582068 454.28986411 -1.67899019 455.31591674 -3.10256958 456.34140015 C-3.76103882 456.83567505 -4.41950806 457.32994995 -5.09793091 457.83920288 C-8.32339728 460.13086233 -9.89295784 461.1563871 -13.94631958 461.1421814 C-16.60256958 460.15390015 -16.60256958 460.15390015 -18.60256958 457.15390015 C-18.84207153 454.43002319 -18.84207153 454.43002319 -18.84085083 451.1656189 C-18.85696411 449.98419312 -18.87307739 448.80276733 -18.88967896 447.58554077 C-18.90652622 445.10121744 -18.91184522 442.61678762 -18.90530396 440.13241577 C-18.82494496 432.74741748 -18.82494496 432.74741748 -22.02053833 426.3609314 C-25.42898899 423.44750534 -26.98962176 423.03161909 -31.36428833 422.94296265 C-32.31883911 422.91460327 -33.27338989 422.8862439 -34.25686646 422.85702515 C-36.2592958 422.80544937 -38.26192395 422.76103283 -40.26467896 422.72421265 C-46.96355601 422.50855463 -52.36930458 422.0458045 -57.56350708 417.3999939 C-58.03014771 416.80315796 -58.49678833 416.20632202 -58.97756958 415.59140015 C-59.45967896 414.99198608 -59.94178833 414.39257202 -60.43850708 413.7749939 C-62.68615256 410.64488358 -62.73343054 408.57176661 -62.7497406 404.75271606 C-62.7568959 403.60589859 -62.76405121 402.45908112 -62.77142334 401.2775116 C-62.77411224 400.01307724 -62.77680115 398.74864288 -62.77957153 397.44589233 C-62.7858356 396.10559411 -62.79248235 394.76529763 -62.79948425 393.42500305 C-62.81690066 389.77814676 -62.82744804 386.13130359 -62.83568978 382.48441601 C-62.84083927 380.20588897 -62.84691507 377.92736602 -62.85320091 375.64884186 C-62.87225598 368.51972658 -62.88648566 361.39062167 -62.89481288 354.26148582 C-62.9045833 346.03257071 -62.93089616 337.80392475 -62.97131377 329.57510448 C-63.00148066 323.21493576 -63.01628234 316.85484417 -63.01959389 310.4946053 C-63.02194401 306.69594594 -63.03089879 302.89757399 -63.05605507 299.09899139 C-63.07935074 295.52350665 -63.08356338 291.94849822 -63.07329369 288.37295723 C-63.07256293 286.43939764 -63.09164441 284.50586217 -63.11135864 282.57240295 C-63.07286968 276.15317577 -63.03602002 271.97746063 -58.60256958 267.15390015 C-54.52173764 263.4811514 -50.98341096 260.91836816 -45.40109253 260.87542725 C-44.1559639 260.85868202 -44.1559639 260.85868202 -42.88568115 260.84159851 C-41.98368988 260.83943832 -41.08169861 260.83727814 -40.15237427 260.83505249 C-39.19594025 260.82500687 -38.23950623 260.81496124 -37.25408936 260.80461121 C-34.09421385 260.77373196 -30.93442326 260.75673076 -27.77444458 260.73983765 C-25.58296984 260.72112983 -23.39150233 260.70155671 -21.20004272 260.68115234 C-15.43301656 260.62978443 -9.66596703 260.59018355 -3.89883423 260.55300903 C1.98643801 260.51299866 7.87161266 260.46189278 13.75680542 260.41171265 C25.30361191 260.31489814 36.85047345 260.23051096 48.39743042 260.15390015 C48.35392456 258.41862061 48.35392456 258.41862061 48.30953979 256.64828491 C48.28607837 255.10980222 48.26332966 253.57130854 48.24118042 252.0328064 C48.22023315 251.2727832 48.19928589 250.51276001 48.17770386 249.72970581 C48.0907438 241.66198627 50.80275141 235.98096245 56.33102417 230.0953064 C57.67310544 228.79508341 59.02482627 227.504741 60.38571167 226.22421265 C73.47530429 212.75336975 77.22345054 194.51198033 78.05685425 176.4961853 C78.20110948 173.48658128 78.43820047 171.03158999 79.39743042 168.15390015 C71.32417472 173.82561776 63.26163785 179.51022228 55.26901245 185.29525757 C53.73644222 186.40441841 52.20227363 187.51137427 50.66647339 188.61605835 C47.4977193 190.89654294 44.35186128 193.18882705 41.25289917 195.5640564 C40.39309448 196.21245483 39.53328979 196.86085327 38.64743042 197.52890015 C37.95133667 198.07288452 37.25524292 198.6168689 36.53805542 199.17733765 C33.48278825 200.57116391 31.56439586 200.09706745 28.39743042 199.15390015 C26.07344369 195.66792005 26.15761091 194.27922355 26.15914917 190.1656189 C26.14303589 188.98419312 26.12692261 187.80276733 26.11032104 186.58554077 C26.09347378 184.10121744 26.08815478 181.61678762 26.09469604 179.13241577 C26.17233774 171.76689901 26.17233774 171.76689901 23.04196167 165.3609314 C19.41462753 162.33368798 16.85419152 162.03437927 12.28414917 161.9781189 C11.28319214 161.95427124 10.28223511 161.93042358 9.25094604 161.90585327 C7.15218995 161.86312721 5.0531701 161.8317455 2.95407104 161.81210327 C-4.35811632 161.6104201 -7.95718055 160.6953826 -13.24710083 155.5562439 C-16.75179298 151.16072698 -17.72153157 148.29895517 -17.78770447 142.7598114 C-17.80327393 141.63975204 -17.81884338 140.51969269 -17.83488464 139.36569214 C-17.84692429 138.13604736 -17.85896393 136.90640259 -17.87136841 135.63949585 C-17.88769318 134.34492966 -17.90401794 133.05036346 -17.9208374 131.71656799 C-17.97422046 127.42100554 -18.01716134 123.12536355 -18.05960083 118.8296814 C-18.07480251 117.34924955 -18.09006342 115.86881831 -18.10538292 114.38838768 C-18.17672765 107.43123797 -18.24323986 100.47406206 -18.30397207 93.51681167 C-18.37417345 85.49495398 -18.46105913 77.47350249 -18.56215459 69.45197612 C-18.63926587 63.2464266 -18.70072005 57.04084096 -18.75056094 50.83501309 C-18.78068897 47.13123789 -18.81748679 43.42781783 -18.87085915 39.72429848 C-18.93001445 35.58794634 -18.95673823 31.45198264 -18.98074341 27.3152771 C-19.00290421 26.09575348 -19.025065 24.87622986 -19.04789734 23.61975098 C-19.05750039 16.21234652 -18.45697669 10.08791737 -13.08402729 4.60399342 C-8.49674773 0.64168666 -5.96308306 0.02692648 0 0 Z " fill="#FEBF54" transform="translate(306.6025695800781,-0.153900146484375)"/>
<path d="M0 0 C0.66 0 1.32 0 2 0 C14.88973692 23.22288698 24.68151573 46.92091338 30 73 C30.20882813 73.98323242 30.41765625 74.96646484 30.6328125 75.97949219 C42.89735061 135.84673911 29.77047371 200.58340239 -3.14453125 251.78125 C-9.99166122 262.07234474 -17.622357 271.84878081 -26.046875 280.89453125 C-27.81228247 282.7976405 -29.4675178 284.75348735 -31.125 286.75 C-62.6973794 322.85360051 -109.69791167 346.18358277 -156 356 C-156.99338379 356.21317871 -157.98676758 356.42635742 -159.01025391 356.64599609 C-187.30252116 362.43482443 -219.68701283 362.86516003 -248 357 C-248.88236328 356.82839355 -249.76472656 356.65678711 -250.67382812 356.47998047 C-293.89013538 347.98401283 -333.26559612 327.86335299 -365.67578125 298.078125 C-367.2654616 296.65676375 -368.90480501 295.28957065 -370.58203125 293.97265625 C-372.7974341 292.16525974 -374.54828964 290.37509704 -376.375 288.1875 C-378.57898728 285.55465806 -380.88448372 283.11811294 -383.33984375 280.72265625 C-386.95664486 277.12930978 -390.10858611 273.3082613 -393.1875 269.25 C-394.01290283 268.1676709 -394.01290283 268.1676709 -394.85498047 267.06347656 C-400.66037431 259.32184724 -405.8328391 251.18382153 -410.83300781 242.90429688 C-411.81050304 241.30922098 -412.8477885 239.75099473 -413.8984375 238.203125 C-415 236 -415 236 -414.7421875 234.02172852 C-413.48623227 230.60048995 -410.45035165 228.81149705 -407.625 226.6875 C-406.99158691 226.2032959 -406.35817383 225.7190918 -405.70556641 225.22021484 C-394.57123777 216.80431026 -382.47801261 207.78424609 -367.8828125 208.52734375 C-359.30000934 209.93455131 -354.44258351 214.25622448 -349.0703125 220.78125 C-343.43816239 226.81721465 -335.45670821 230.64103919 -327.265625 231.30078125 C-325.9272177 231.32014488 -324.58850179 231.32354612 -323.25 231.3125 C-322.54480225 231.30758545 -321.83960449 231.3026709 -321.11303711 231.29760742 C-309.98463616 231.04917718 -300.17564887 227.07800423 -291.9375 219.5625 C-277.72210503 204.1975366 -272.71811369 181.35331238 -266.92773438 161.80615234 C-263.21301702 150.5701099 -255.7001272 143.31500092 -245.78515625 137.2265625 C-243.2388613 136.10519278 -241.03170407 135.50086939 -238.32592773 134.92333984 C-237.51574692 134.74878265 -236.7055661 134.57422546 -235.87083435 134.39437866 C-235.25345901 134.2642337 -234.63608368 134.13408875 -234 134 C-233.99853344 134.63353205 -233.99706688 135.26706409 -233.99555588 135.91979408 C-233.95848394 151.34398092 -233.89946436 166.76790464 -233.81609726 182.19190407 C-233.77630904 189.65088887 -233.74391552 197.10976821 -233.72900391 204.56884766 C-233.71598617 211.0711469 -233.6890187 217.57321406 -233.64538693 224.07538259 C-233.62277446 227.51743192 -233.60708916 230.95919503 -233.60811615 234.40132523 C-233.60900176 238.24646753 -233.57873975 242.09102577 -233.54589844 245.93603516 C-233.5509288 247.07395508 -233.55595917 248.211875 -233.56114197 249.38427734 C-233.4792938 255.57078991 -233.16591748 259.30718724 -229 264 C-224.42017911 268.23633433 -221.1530072 269.11639288 -215.04296875 269.10546875 C-214.09486328 269.12029297 -213.14675781 269.13511719 -212.16992188 269.15039062 C-210.1935055 269.17498258 -208.21675122 269.18042363 -206.24023438 269.16601562 C-200.09488666 269.30331859 -196.67488141 270.17069143 -192.2355957 274.52075195 C-189.66227032 277.60152225 -189.85170851 280.06692428 -189.7890625 283.99609375 C-189.76070312 285.19427734 -189.73234375 286.39246094 -189.703125 287.62695312 C-189.65112476 290.16326477 -189.60682884 292.6997463 -189.5703125 295.23632812 C-189.52390625 297.03553711 -189.52390625 297.03553711 -189.4765625 298.87109375 C-189.45674316 299.97380615 -189.43692383 301.07651855 -189.41650391 302.21264648 C-189.2184737 305.00244838 -189.2184737 305.00244838 -187.63720703 306.88012695 C-185.96293486 308.24565134 -185.96293486 308.24565134 -183.328125 308.046875 C-178.76938959 306.61290659 -175.52780173 304.12127772 -171.75 301.25 C-170.14604506 300.06091227 -168.54187213 298.87211853 -166.9375 297.68359375 C-166.12023437 297.07241699 -165.30296875 296.46124023 -164.4609375 295.83154297 C-160.58804252 292.94915625 -156.66871963 290.13208715 -152.75 287.3125 C-151.26554133 286.24100132 -149.78116508 285.16938846 -148.296875 284.09765625 C-144.20109173 281.1440019 -140.10384277 278.19244882 -136 275.25 C-135.41831055 274.83145752 -134.83662109 274.41291504 -134.23730469 273.98168945 C-129.46294762 270.56575409 -127.20076801 269.87459927 -121.29052734 269.8581543 C-120.60082855 269.85467987 -119.91112976 269.85120544 -119.20053101 269.84762573 C-117.70001407 269.84026597 -116.19948623 269.83492176 -114.69895554 269.83133507 C-112.31895904 269.82416762 -109.9391685 269.80849673 -107.55923462 269.78999329 C-100.79130979 269.73755382 -94.02349446 269.68960068 -87.25537109 269.67407227 C-83.11609017 269.66395252 -78.97732281 269.63452235 -74.83824539 269.59275246 C-73.26514203 269.5804884 -71.69196595 269.57531277 -70.11881638 269.57755089 C-58.32708192 269.90663699 -58.32708192 269.90663699 -48 265 C-42.13214247 258.61548055 -42.35975014 251.97509639 -42.57519531 243.69018555 C-42.59626611 241.66432779 -42.61732787 239.63846991 -42.6380496 237.61260855 C-42.66486691 235.44765806 -42.70400433 233.28323363 -42.74643707 231.118536 C-42.8336266 226.59096023 -42.87754627 222.06358398 -42.91424561 217.53535461 C-43.0183497 205.47537061 -43.17307007 193.41618317 -43.36546206 181.35729009 C-43.49197583 173.42731459 -43.59236415 165.49797746 -43.64344478 157.56712562 C-43.67441226 153.07454413 -43.74609427 148.58511499 -43.84914446 144.09363782 C-43.90394738 141.28730013 -43.92034046 138.4816612 -43.92650223 135.67483521 C-43.94177188 133.77404799 -44.00207398 131.87378498 -44.0642395 129.97395325 C-44.02138166 120.34419046 -40.48982744 115.81684208 -34 109 C-21.47889062 91.6545684 -18.68877564 69.47794246 -21.28564453 48.71630859 C-23.62569676 34.75255452 -31.14171058 22.47959498 -40.3125 11.9765625 C-42 10 -42 10 -42 9 C-41.07251953 8.99589111 -40.14503906 8.99178223 -39.18945312 8.98754883 C-35.71473758 8.96041618 -32.24174184 8.91117554 -28.76757812 8.84741211 C-27.27029124 8.82435957 -25.77284514 8.80986654 -24.27539062 8.80444336 C-12.15566873 8.96192342 -12.15566873 8.96192342 -2 3 C-1.34 2.01 -0.68 1.02 0 0 Z " fill="#B7E446" transform="translate(478,152)"/>
<path d="M0 0 C12.27835399 11.73543357 21.13316039 28.67056474 22.23828125 45.6640625 C22.41331502 55.00533834 22.3795289 64.9045618 15.95005798 72.38504028 C12.73049727 77.20577529 13.47259577 82.90843107 13.53344727 88.48779297 C13.52990717 90.41576846 13.52636412 92.34374394 13.52270973 94.27171922 C13.522596 96.33635213 13.53228398 98.40073468 13.54471016 100.46532822 C13.56989895 104.77795878 13.5635254 109.09019417 13.55223083 113.40286255 C13.52906448 124.11440427 13.54742447 134.82583078 13.57373047 145.53735352 C13.59370541 153.86401801 13.6022027 162.19036481 13.57679409 170.51702988 C13.56501644 174.7986146 13.5765441 179.07929243 13.6060468 183.36078238 C13.62248791 186.65841323 13.60657345 189.95576654 13.59594727 193.25341797 C13.61085709 194.4308255 13.62576691 195.60823303 13.64112854 196.82131958 C13.58085519 203.77101521 12.73175313 208.71216777 8 214 C3.38847511 217.59698941 -0.13546197 219.09451896 -5.9296875 219.2109375 C-6.89003906 219.23929688 -7.85039062 219.26765625 -8.83984375 219.296875 C-10.85528732 219.34875257 -12.87093993 219.39308451 -14.88671875 219.4296875 C-21.97090707 219.56696968 -21.97090707 219.56696968 -28 223 C-31.09556175 226.32886002 -31.35941205 228.63242508 -31.3359375 233.12109375 C-31.34882813 234.30380859 -31.36171875 235.48652344 -31.375 236.70507812 C-31.375 239.18946541 -31.36721187 241.67386513 -31.3515625 244.15820312 C-31.48414705 254.30644525 -31.48414705 254.30644525 -34.2265625 257.41015625 C-37 259 -37 259 -39.33203125 259.140625 C-43.16656493 257.5012636 -46.33613472 255.21178629 -49.6875 252.75 C-50.42935547 252.21568359 -51.17121094 251.68136719 -51.93554688 251.13085938 C-54.29609128 249.42833407 -56.64814393 247.71450065 -59 246 C-60.50587282 244.91057646 -62.01237405 243.82202098 -63.51953125 242.734375 C-65.75803754 241.11859641 -67.99638681 239.50261312 -70.23339844 237.88476562 C-75.62194626 233.9884672 -81.0195587 230.10534192 -86.4375 226.25 C-87.15357422 225.73630859 -87.86964844 225.22261719 -88.60742188 224.69335938 C-89.27193359 224.22220703 -89.93644531 223.75105469 -90.62109375 223.265625 C-91.2030249 222.85086914 -91.78495605 222.43611328 -92.38452148 222.00878906 C-96.13004838 219.66988667 -99.51709583 219.90073675 -103.80712891 219.94995117 C-104.83948669 219.95936989 -104.83948669 219.95936989 -105.8927002 219.96897888 C-107.38722314 219.98282456 -108.88172785 219.9987592 -110.37620926 220.01653099 C-112.74806729 220.04321064 -115.11983135 220.06105671 -117.49179077 220.07600403 C-124.23607348 220.11869816 -130.98017263 220.16607873 -137.72412109 220.24682617 C-141.85135593 220.29559654 -145.97832998 220.32441653 -150.10581589 220.34057045 C-151.67261435 220.35041656 -153.23938582 220.36754782 -154.80601883 220.39235497 C-172.94825083 220.67306749 -172.94825083 220.67306749 -179.60342407 214.51676941 C-183.3707559 210.25661298 -184.12370871 206.9005672 -184.15390015 201.37812805 C-184.16250061 200.20758377 -184.17110107 199.03703949 -184.17996216 197.83102417 C-184.18422211 196.54527496 -184.18848206 195.25952576 -184.19287109 193.93481445 C-184.2007742 192.56805717 -184.20904328 191.20130197 -184.21765137 189.83454895 C-184.24385079 185.3441466 -184.25917848 180.85373502 -184.2734375 176.36328125 C-184.27879833 174.81598594 -184.28417584 173.26869069 -184.28956985 171.72139549 C-184.31119693 165.28323963 -184.32993213 158.84508625 -184.34119225 152.40690327 C-184.35742176 143.18875211 -184.39057685 133.9710231 -184.44759309 124.75303108 C-184.48633848 118.26712427 -184.50583044 111.78133015 -184.51111281 105.29531068 C-184.51476047 101.42387306 -184.52671823 97.55288589 -184.55921555 93.68157387 C-184.58937721 90.03623612 -184.59557984 86.39161944 -184.58383179 82.7461834 C-184.58350722 80.77959296 -184.6079198 78.8130465 -184.63320923 76.84661865 C-184.5831731 69.72092238 -184.13535134 64.27045274 -179 59 C-174.1437484 54.83174993 -169.46895101 54.46601109 -163.2734375 54.69213867 C-162.00594414 54.71277374 -162.00594414 54.71277374 -160.71284485 54.73382568 C-158.88705224 54.76454669 -157.06138546 54.8036735 -155.2359314 54.85036278 C-152.33253999 54.91897211 -149.4307044 54.95274228 -146.52661133 54.97566223 C-138.2736727 55.04200826 -130.02267702 55.13002757 -121.77197266 55.33911133 C-116.7121598 55.46479935 -111.65609636 55.51545387 -106.5947876 55.51958656 C-104.68091201 55.53497912 -102.76703248 55.5773813 -100.85443115 55.64888573 C-88.92184156 56.10717157 -88.92184156 56.10717157 -78.62524414 50.75845337 C-75.36783448 47.66085499 -72.48590704 44.31218736 -69.63174438 40.84554482 C-65.17266651 35.8022132 -59.42295156 31.93981407 -54 28 C-53.39639648 27.55736816 -52.79279297 27.11473633 -52.17089844 26.65869141 C-9.28975497 -4.54289415 -9.28975497 -4.54289415 0 0 Z " fill="#F9F7F7" transform="translate(184,54)"/>
<path d="M0 0 C1.02927701 -0.00657338 1.02927701 -0.00657338 2.07934749 -0.01327956 C4.3899677 -0.02668636 6.70054975 -0.03285068 9.01119995 -0.03897095 C10.66352003 -0.04687061 12.31583838 -0.05513947 13.96815491 -0.06375122 C19.40550077 -0.08999304 24.8428544 -0.10528371 30.28024292 -0.11953735 C32.15164063 -0.12489666 34.02303828 -0.13027417 35.89443588 -0.13566971 C43.68021286 -0.15730401 51.46598775 -0.17603978 59.25178719 -0.1872921 C70.40982964 -0.20352364 81.56752342 -0.23667577 92.72543442 -0.29369295 C100.57012089 -0.33241175 108.4147142 -0.35192725 116.25949371 -0.35721266 C120.94469071 -0.36086424 125.62951601 -0.37286434 130.31460953 -0.4053154 C134.72568195 -0.43542923 139.13615844 -0.44169616 143.54731178 -0.42993164 C145.1629833 -0.42971116 146.77868272 -0.43799491 148.3942585 -0.45558548 C163.56406639 -0.61171217 163.56406639 -0.61171217 168.92891693 3.64802265 C175.33814093 10.22031923 174.98186828 16.58477494 174.94674683 25.39779663 C174.9554522 26.73559705 174.96582221 28.07338751 174.97772217 29.41116333 C175.004405 33.02905247 175.00567076 36.64652254 175.00059557 40.26449084 C174.99844966 43.29125172 175.00823926 46.31792892 175.01780641 49.34467179 C175.03996271 56.48825809 175.04089061 63.63163403 175.02877808 70.77523804 C175.01669709 78.13103752 175.04133034 85.48607203 175.08391821 92.84174103 C175.11920638 99.17066664 175.13114432 105.49934936 175.12464273 111.82836968 C175.12102578 115.60251664 175.12619989 119.37611773 175.15407181 123.15017509 C175.17931314 126.70055017 175.17526511 130.24973676 175.14925003 133.8000946 C175.1423007 135.71412791 175.16481383 137.62819822 175.18838501 139.542099 C175.10882761 146.08436754 174.60058647 150.59554923 170.14343452 155.5788784 C165.18726944 160.04969709 160.85346611 161.65512947 154.07614136 161.5887146 C153.38077774 161.58780823 152.68541412 161.58690186 151.96897888 161.58596802 C150.47068326 161.5819277 148.97238988 161.56902749 147.47423553 161.54805946 C145.09270783 161.51666601 142.71255785 161.51308653 140.33084106 161.51698303 C133.56414106 161.52346876 126.7980772 161.48333302 120.03170776 161.41830444 C115.88009288 161.38033245 111.72953418 161.3768391 107.57779694 161.39333153 C106.00706985 161.39257359 104.43628652 161.37872797 102.86580658 161.35085487 C92.57238993 161.17007681 85.66847261 162.48634377 77.39743042 169.15390015 C75.8686849 170.25555594 74.33669459 171.35274067 72.79977417 172.44296265 C71.30897339 173.55156166 69.82073833 174.6636183 68.33493042 175.77890015 C66.69483821 176.99836704 65.05419854 178.21709793 63.41305542 179.43515015 C62.17458862 180.35554077 62.17458862 180.35554077 60.91110229 181.29452515 C56.82330647 184.31828709 52.70661992 187.30157858 48.58493042 190.27890015 C47.85072876 190.81079956 47.1165271 191.34269897 46.3600769 191.89071655 C44.37880695 193.32083031 42.389698 194.73916573 40.39743042 196.15390015 C39.54254028 196.77518799 39.54254028 196.77518799 38.67037964 197.4090271 C35.84642427 199.40166371 34.70573912 200.15982916 31.14743042 200.09140015 C28.39743042 199.15390015 28.39743042 199.15390015 26.39743042 196.15390015 C26.15792847 193.43002319 26.15792847 193.43002319 26.15914917 190.1656189 C26.14303589 188.98419312 26.12692261 187.80276733 26.11032104 186.58554077 C26.09347378 184.10121744 26.08815478 181.61678762 26.09469604 179.13241577 C26.17233774 171.76689901 26.17233774 171.76689901 23.04196167 165.3609314 C19.41462753 162.33368798 16.85419152 162.03437927 12.28414917 161.9781189 C11.28319214 161.95427124 10.28223511 161.93042358 9.25094604 161.90585327 C7.15218995 161.86312721 5.0531701 161.8317455 2.95407104 161.81210327 C-4.35811632 161.6104201 -7.95718055 160.6953826 -13.24710083 155.5562439 C-16.75179298 151.16072698 -17.72153157 148.29895517 -17.78770447 142.7598114 C-17.80327393 141.63975204 -17.81884338 140.51969269 -17.83488464 139.36569214 C-17.84692429 138.13604736 -17.85896393 136.90640259 -17.87136841 135.63949585 C-17.88769318 134.34492966 -17.90401794 133.05036346 -17.9208374 131.71656799 C-17.97422046 127.42100554 -18.01716134 123.12536355 -18.05960083 118.8296814 C-18.07480251 117.34924955 -18.09006342 115.86881831 -18.10538292 114.38838768 C-18.17672765 107.43123797 -18.24323986 100.47406206 -18.30397207 93.51681167 C-18.37417345 85.49495398 -18.46105913 77.47350249 -18.56215459 69.45197612 C-18.63926587 63.2464266 -18.70072005 57.04084096 -18.75056094 50.83501309 C-18.78068897 47.13123789 -18.81748679 43.42781783 -18.87085915 39.72429848 C-18.93001445 35.58794634 -18.95673823 31.45198264 -18.98074341 27.3152771 C-19.00290421 26.09575348 -19.025065 24.87622986 -19.04789734 23.61975098 C-19.05750039 16.21234652 -18.45697669 10.08791737 -13.08402729 4.60399342 C-8.49674773 0.64168666 -5.96308306 0.02692648 0 0 Z " fill="#DC4955" transform="translate(306.6025695800781,-0.153900146484375)"/>
<path d="M0 0 C0.66 0 1.32 0 2 0 C14.88973692 23.22288698 24.68151573 46.92091338 30 73 C30.31324219 74.47484863 30.31324219 74.47484863 30.6328125 75.97949219 C42.89735061 135.84673911 29.77047371 200.58340239 -3.14453125 251.78125 C-9.99166122 262.07234474 -17.622357 271.84878081 -26.046875 280.89453125 C-27.81228247 282.7976405 -29.4675178 284.75348735 -31.125 286.75 C-48.57700222 306.70668773 -70.90167294 321.43402444 -94 334 C-94.54527344 333.3090625 -95.09054687 332.618125 -95.65234375 331.90625 C-98.22931227 328.71612591 -100.88541273 325.60596005 -103.5625 322.5 C-104.63811335 321.24487095 -105.71363221 319.98966091 -106.7890625 318.734375 C-108.77270961 316.42229379 -110.76676015 314.12022866 -112.7734375 311.828125 C-120.45017844 302.99545939 -127.35791696 293.63202374 -134 284 C-134.639375 283.0821875 -135.27875 282.164375 -135.9375 281.21875 C-137 279 -137 279 -136.75683594 277.0309906 C-135.55175625 273.79712526 -133.67587901 272.70334258 -130.74804688 271.01028442 C-125.38651074 269.03918397 -119.70724047 269.34649741 -114.0645752 269.40841484 C-111.70884332 269.43404147 -109.35484348 269.42897157 -106.99902344 269.41651917 C-101.99915459 269.3958653 -96.9998326 269.41539811 -92 269.4375 C-86.20134638 269.45867517 -80.40325651 269.46306121 -74.60461426 269.43699837 C-72.29556935 269.43365964 -69.98762598 269.45477836 -67.67871094 269.47740173 C-57.12421198 269.63670064 -57.12421198 269.63670064 -48 265 C-42.13128913 258.61682499 -42.35977232 251.97424331 -42.57519531 243.69018555 C-42.59626611 241.66432779 -42.61732787 239.63846991 -42.6380496 237.61260855 C-42.66486691 235.44765806 -42.70400433 233.28323363 -42.74643707 231.118536 C-42.8336266 226.59096023 -42.87754627 222.06358398 -42.91424561 217.53535461 C-43.0183497 205.47537061 -43.17307007 193.41618317 -43.36546206 181.35729009 C-43.49197583 173.42731459 -43.59236415 165.49797746 -43.64344478 157.56712562 C-43.67441226 153.07454413 -43.74609427 148.58511499 -43.84914446 144.09363782 C-43.90394738 141.28730013 -43.92034046 138.4816612 -43.92650223 135.67483521 C-43.94177188 133.77404799 -44.00207398 131.87378498 -44.0642395 129.97395325 C-44.02138166 120.34419046 -40.48982744 115.81684208 -34 109 C-21.47889062 91.6545684 -18.68877564 69.47794246 -21.28564453 48.71630859 C-23.62569676 34.75255452 -31.14171058 22.47959498 -40.3125 11.9765625 C-42 10 -42 10 -42 9 C-41.07251953 8.99589111 -40.14503906 8.99178223 -39.18945312 8.98754883 C-35.71473758 8.96041618 -32.24174184 8.91117554 -28.76757812 8.84741211 C-27.27029124 8.82435957 -25.77284514 8.80986654 -24.27539062 8.80444336 C-12.15566873 8.96192342 -12.15566873 8.96192342 -2 3 C-1.34 2.01 -0.68 1.02 0 0 Z " fill="#94CCD3" transform="translate(478,152)"/>
<path d="M0 0 C2.36293746 0.00543147 4.72569082 -0.00001076 7.08862305 -0.00634766 C8.58927451 -0.00568807 10.08992586 -0.00440939 11.59057617 -0.00244141 C12.29775284 -0.00446564 13.0049295 -0.00648987 13.73353577 -0.00857544 C18.65917082 0.01537199 18.65917082 0.01537199 19.77416992 1.13037109 C19.87536344 2.5714998 19.90768225 4.01753389 19.91220093 5.46220398 C19.91765427 6.39729294 19.9231076 7.3323819 19.9287262 8.29580688 C19.92976852 9.33006805 19.93081085 10.36432922 19.93188477 11.42993164 C19.93696548 12.51283981 19.9420462 13.59574799 19.94728088 14.71147156 C19.95801237 17.07252368 19.96662156 19.43358616 19.97340012 21.79465294 C19.98515049 25.5307847 20.00459434 29.26679883 20.02651978 33.00288391 C20.08825857 43.62892294 20.14240209 54.25493724 20.17553711 64.88110352 C20.19647514 71.37273356 20.23177647 77.86415212 20.27629471 84.35566139 C20.29046697 86.83195315 20.2991799 89.30828237 20.30234909 91.78461266 C20.30725403 95.25124615 20.33040382 98.71731831 20.35766602 102.18383789 C20.35465988 103.20797791 20.35165375 104.23211792 20.34855652 105.28729248 C20.41111926 110.64056723 20.70783015 114.53559178 23.77416992 119.13037109 C24.66104492 119.89349609 25.54791992 120.65662109 26.46166992 121.44287109 C29.31308174 124.75667402 29.32870174 126.26710141 29.06323242 130.49365234 C28.9678418 131.36376953 28.87245117 132.23388672 28.77416992 133.13037109 C28.6787793 134.11392578 28.58338867 135.09748047 28.48510742 136.11083984 C26.35269146 153.27469772 19.64768084 166.83467692 6.47729492 178.12646484 C-3.87118425 185.79809753 -15.72662992 189.71792447 -28.53833008 189.56787109 C-29.45404785 189.56029785 -30.36976563 189.55272461 -31.31323242 189.54492188 C-43.1502772 189.2588617 -53.33679287 185.6183444 -63.22583008 179.13037109 C-63.9544223 178.76534485 -64.68301453 178.4003186 -65.4336853 178.02423096 C-68.31798602 176.30546744 -70.16313834 174.79938725 -72.22583008 172.13037109 C-73.56351777 166.38934632 -73.3976211 160.7511222 -73.28051758 154.88427734 C-73.27641692 153.18709274 -73.2755851 151.48989738 -73.27786255 149.79270935 C-73.27309158 146.24222532 -73.23796123 142.69379572 -73.17944336 139.14379883 C-73.10583671 134.60966992 -73.09376651 130.07803349 -73.10279655 125.54339695 C-73.1053315 122.04030891 -73.08215912 118.53776728 -73.05066299 115.03483391 C-73.03733571 113.36404122 -73.03020588 111.69318649 -73.02956772 110.02234077 C-72.98760582 94.13299019 -72.98760582 94.13299019 -67.22583008 87.13037109 C-62.29326796 76.76020637 -62.93167469 63.0892419 -66.05004883 52.27099609 C-69.69145527 42.54444866 -74.41868243 33.03049738 -81.22583008 25.13037109 C-86.22583008 19.2728513 -86.22583008 19.2728513 -86.22583008 17.13037109 C-66.563609 9.29330656 -46.23665626 3.8530271 -25.22583008 1.13037109 C-24.1813269 0.98680176 -24.1813269 0.98680176 -23.11572266 0.84033203 C-15.43169385 -0.08295855 -7.72649531 -0.02123337 0 0 Z " fill="#B7E446" transform="translate(269.225830078125,34.86962890625)"/>
<path d="M0 0 C3.58219302 2.38812868 4.52125085 4.41608977 6.5625 8.1875 C37.53143545 63.8349186 91.18599908 103.48099585 152 121 C173.91659788 126.86308463 195.72765176 129.22169863 218.375 129.25 C219.16081451 129.25200409 219.94662903 129.25400818 220.7562561 129.256073 C233.24250034 129.2638362 245.34940559 128.43243753 257.68115234 126.36376953 C261.44066478 125.77399552 265.21523619 125.39178962 269 125 C252.45821212 138.92088123 224.61427417 143.99083236 204 148 C203.20271484 148.16516113 202.40542969 148.33032227 201.58398438 148.50048828 C174.98644059 153.84542279 143.53249892 153.49632405 117 148 C115.67645508 147.74259033 115.67645508 147.74259033 114.32617188 147.47998047 C71.10986462 138.98401283 31.73440388 118.86335299 -0.67578125 89.078125 C-2.2654616 87.65676375 -3.90480501 86.28957065 -5.58203125 84.97265625 C-7.7974341 83.16525974 -9.54828964 81.37509704 -11.375 79.1875 C-13.57898728 76.55465806 -15.88448372 74.11811294 -18.33984375 71.72265625 C-21.95664486 68.12930978 -25.10858611 64.3082613 -28.1875 60.25 C-28.73776855 59.52844727 -29.28803711 58.80689453 -29.85498047 58.06347656 C-35.66037431 50.32184724 -40.8328391 42.18382153 -45.83300781 33.90429688 C-46.81050304 32.30922098 -47.8477885 30.75099473 -48.8984375 29.203125 C-50 27 -50 27 -49.7421875 25.02172852 C-48.48623227 21.60048995 -45.45035165 19.81149705 -42.625 17.6875 C-41.99158691 17.2032959 -41.35817383 16.7190918 -40.70556641 16.22021484 C-28.71713765 7.15873698 -15.80423951 -2.34961307 0 0 Z " fill="#ABD641" transform="translate(113,361)"/>
<path d="M0 0 C0.33 44.88 0.66 89.76 1 136 C6.28 136.66 11.56 137.32 17 138 C18.65 138.66 20.3 139.32 22 140 C28.6595305 140.36607589 34.40088453 137.89463821 40.25 135 C41.07411377 134.60063232 41.89822754 134.20126465 42.74731445 133.78979492 C50.02650225 130.16898923 56.52050635 125.90092013 63 121 C63.84820312 120.37351562 64.69640625 119.74703125 65.5703125 119.1015625 C67.39241718 117.74926878 69.20253325 116.38475535 71 115 C71.825 115.68964844 72.65 116.37929687 73.5 117.08984375 C82.14609551 124.17763872 91.06330998 129.89415955 101 135 C102.05960937 135.55042969 103.11921875 136.10085937 104.2109375 136.66796875 C109.3059783 139.15965309 113.30883925 140.94852679 119 140 C119.46275833 139.50171188 119.92551666 139.00342377 120.40229797 138.49003601 C122.52423575 136.51109147 123.69573065 136.63585532 126.56323242 136.65942383 C127.48396042 136.65965042 128.40468842 136.65987701 129.35331726 136.66011047 C130.34402725 136.67559433 131.33473724 136.69107819 132.35546875 136.70703125 C133.37224197 136.71127609 134.3890152 136.71552094 135.43659973 136.71989441 C138.68716812 136.73670003 141.9371187 136.77435618 145.1875 136.8125 C147.38996501 136.82754438 149.59243973 136.84123321 151.79492188 136.85351562 C157.19682572 136.88660964 162.59836872 136.93682777 168 137 C168.06959751 138.90572696 168.11907658 140.81219512 168.16015625 142.71875 C168.18988525 143.78029297 168.21961426 144.84183594 168.25024414 145.93554688 C167.85539161 150.77085322 165.61625224 153.88620159 162 157 C156.9606479 160.30991844 153.84294054 161.49522126 147.67871094 161.43481445 C146.98334732 161.43390808 146.2879837 161.43300171 145.57154846 161.43206787 C144.07325284 161.42802756 142.57495946 161.41512735 141.07680511 161.39415932 C138.69527741 161.36276586 136.31512743 161.35918639 133.93341064 161.36308289 C127.16671064 161.36956862 120.40064678 161.32943288 113.63427734 161.2644043 C109.48266246 161.2264323 105.33210376 161.22293895 101.18036652 161.23943138 C99.60963943 161.23867344 98.0388561 161.22482782 96.46837616 161.19695473 C86.17495951 161.01617666 79.27104219 162.33244362 71 169 C69.47125448 170.1016558 67.93926417 171.19884052 66.40234375 172.2890625 C64.91154297 173.39766151 63.42330791 174.50971815 61.9375 175.625 C60.29740779 176.84446689 58.65676812 178.06319778 57.015625 179.28125 C55.7771582 180.20164063 55.7771582 180.20164063 54.51367188 181.140625 C50.42587605 184.16438695 46.3091895 187.14767843 42.1875 190.125 C41.45329834 190.65689941 40.71909668 191.18879883 39.96264648 191.73681641 C37.98137653 193.16693016 35.99226758 194.58526558 34 196 C33.14510986 196.62128784 33.14510986 196.62128784 32.27294922 197.25512695 C29.44899385 199.24776357 28.3083087 200.00592901 24.75 199.9375 C22 199 22 199 20 196 C19.76049805 193.27612305 19.76049805 193.27612305 19.76171875 190.01171875 C19.74560547 188.83029297 19.72949219 187.64886719 19.71289062 186.43164062 C19.69604336 183.94731729 19.69072436 181.46288747 19.69726562 178.97851562 C19.77490732 171.61299887 19.77490732 171.61299887 16.64453125 165.20703125 C13.01719711 162.17978784 10.4567611 161.88047912 5.88671875 161.82421875 C4.88576172 161.80037109 3.88480469 161.77652344 2.85351562 161.75195312 C0.75475953 161.70922706 -1.34426032 161.67784535 -3.44335938 161.65820312 C-10.75554674 161.45651996 -14.35461097 160.54148246 -19.64453125 155.40234375 C-23.1492234 151.00682683 -24.11896199 148.14505503 -24.18513489 142.60591125 C-24.20070435 141.4858519 -24.2162738 140.36579254 -24.23231506 139.21179199 C-24.24435471 137.98214722 -24.25639435 136.75250244 -24.26879883 135.4855957 C-24.2851236 134.19102951 -24.30144836 132.89646332 -24.31826782 131.56266785 C-24.37165088 127.2671054 -24.41459176 122.9714634 -24.45703125 118.67578125 C-24.47223293 117.1953494 -24.48749384 115.71491817 -24.50281334 114.23448753 C-24.57415807 107.27733782 -24.64067028 100.32016192 -24.70140249 93.36291152 C-24.77160387 85.34105383 -24.85848955 77.31960235 -24.95958501 69.29807597 C-25.03669629 63.09252646 -25.09815047 56.88694081 -25.14799136 50.68111295 C-25.17811939 46.97733775 -25.21491721 43.27391768 -25.26828957 39.57039833 C-25.32744487 35.43404619 -25.35416865 31.29808249 -25.37817383 27.16137695 C-25.40033463 25.94185333 -25.42249542 24.72232971 -25.44532776 23.46585083 C-25.45493081 16.05844637 -24.85440711 9.93401723 -19.48145771 4.45009327 C-12.50152961 -1.57888663 -11.27726433 0 0 0 Z " fill="#D72F3C" transform="translate(313,0)"/>
<path d="M0 0 C0.33 44.55 0.66 89.1 1 135 C6.94 135.66 12.88 136.32 19 137 C27.60274697 140.68689156 35.00702149 145.67914932 39.6875 154 C40.807834 156.21015385 40.807834 156.21015385 43.09375 156.48046875 C47.55274956 155.74329544 50.34462086 153.09528543 53.8125 150.3125 C64.66628948 141.76449163 73.94153147 135.46726562 88.19165039 135.65942383 C89.06103241 135.65898575 89.93041443 135.65854767 90.82614136 135.65809631 C93.66688406 135.66016716 96.50701813 135.68341677 99.34765625 135.70703125 C101.33019183 135.71263328 103.31273159 135.71690051 105.29527283 135.71989441 C110.48863385 135.73129537 115.68173928 135.76072134 120.875 135.79400635 C126.18420963 135.82481001 131.49346095 135.83842168 136.80273438 135.85351562 C147.20193461 135.88559587 157.60094597 135.9367343 168 136 C168.05778341 137.7404893 168.09877673 139.48154066 168.1328125 141.22265625 C168.16979248 142.6768396 168.16979248 142.6768396 168.20751953 144.16040039 C167.87852321 148.66223117 165.98586743 151.70310472 163 155 C157.64252914 159.17882727 153.9212752 160.12433333 147.22460938 160.09423828 C145.80464702 160.09145142 144.38468444 160.08878157 142.96472168 160.08621216 C142.21238754 160.08316196 141.46005341 160.08011177 140.68492126 160.07696915 C136.68312975 160.06559086 132.68144956 160.08614683 128.6796875 160.1015625 C123.59516728 160.11979921 118.51125073 160.12867834 113.42675781 160.09960938 C109.31201699 160.07692731 105.1985866 160.08868698 101.0839386 160.12261581 C99.52444325 160.12933903 97.96484051 160.12383277 96.40544128 160.10525894 C86.1774902 159.99136667 79.20526183 161.3428525 71 168 C70.39798264 168.44274765 69.79596527 168.8854953 69.17570496 169.34165955 C67.65217456 170.46219579 66.16839826 171.63619787 64.6875 172.8125 C58.55321195 177.61841391 52.27705106 182.18254755 45.89599609 186.65429688 C43.83627477 188.1162057 41.80331494 189.61162374 39.76953125 191.109375 C38.3467489 192.13596396 36.92357939 193.16201659 35.5 194.1875 C34.84153076 194.6817749 34.18306152 195.1760498 33.50463867 195.68530273 C30.2791723 197.97696218 28.70961174 199.00248696 24.65625 198.98828125 C22 198 22 198 20 195 C19.76049805 192.27612305 19.76049805 192.27612305 19.76171875 189.01171875 C19.74560547 187.83029297 19.72949219 186.64886719 19.71289062 185.43164062 C19.69604336 182.94731729 19.69072436 180.46288747 19.69726562 177.97851562 C19.77762462 170.59351733 19.77762462 170.59351733 16.58203125 164.20703125 C13.17358059 161.29360519 11.61294782 160.87771894 7.23828125 160.7890625 C6.28373047 160.76070312 5.32917969 160.73234375 4.34570312 160.703125 C2.34327378 160.65154923 0.34064563 160.60713268 -1.66210938 160.5703125 C-8.36098643 160.35465449 -13.766735 159.89190435 -18.9609375 155.24609375 C-19.66089844 154.35083984 -19.66089844 154.35083984 -20.375 153.4375 C-20.85710937 152.83808594 -21.33921875 152.23867188 -21.8359375 151.62109375 C-24.08358298 148.49098343 -24.13086096 146.41786646 -24.14717102 142.59881592 C-24.15432632 141.45199844 -24.16148163 140.30518097 -24.16885376 139.12361145 C-24.17154266 137.85917709 -24.17423157 136.59474274 -24.17700195 135.29199219 C-24.18326602 133.95169396 -24.18991277 132.61139748 -24.19691467 131.27110291 C-24.21433108 127.62424661 -24.22487846 123.97740344 -24.2331202 120.33051586 C-24.23826969 118.05198883 -24.24434549 115.77346587 -24.25063133 113.49494171 C-24.2696864 106.36582643 -24.28391608 99.23672152 -24.2922433 92.10758567 C-24.30201372 83.87867057 -24.32832658 75.6500246 -24.36874419 67.42120433 C-24.39891108 61.06103562 -24.41371276 54.70094402 -24.41702431 48.34070516 C-24.41937443 44.5420458 -24.42832921 40.74367385 -24.45348549 36.94509125 C-24.47678116 33.3696065 -24.4809938 29.79459807 -24.47072411 26.21905708 C-24.46999335 24.2854975 -24.48907483 22.35196203 -24.50878906 20.41850281 C-24.47030742 14.00049634 -24.43810868 9.81907815 -20 5 C-12.69891321 -1.43190979 -11.94557838 0 0 0 Z " fill="#FEA442" transform="translate(268,262)"/>
<path d="M0 0 C2.77655909 -0.01317755 5.53894313 -0.12236288 8.31298828 -0.23583984 C21.97364216 -0.49657337 21.97364216 -0.49657337 26.63183594 3.60571289 C29.30570198 6.49177617 31.31279367 9.70718556 33.27783203 13.11181641 C33.98601074 14.17625977 33.98601074 14.17625977 34.70849609 15.26220703 C45.72766713 32.19614866 48.04368497 52.71506491 44.43017578 72.35009766 C41.14072079 87.22595806 34.13107439 101.28109114 23.27783203 112.11181641 C22.61783203 112.11181641 21.95783203 112.11181641 21.27783203 112.11181641 C20.72095703 111.20431641 20.16408203 110.29681641 19.59033203 109.36181641 C16.90369276 105.58599905 14.62539059 103.57362502 10.27783203 102.11181641 C5.17820706 101.51332326 0.09892622 101.52978801 -5.02685547 101.53759766 C-6.51662837 101.5251418 -8.00638662 101.5108046 -9.49612427 101.49467468 C-13.39850945 101.45679072 -17.30064116 101.44148291 -21.20318604 101.43188477 C-27.47014468 101.41207234 -33.73691175 101.35541447 -40.00366592 101.30312157 C-42.19353162 101.28774389 -44.38330144 101.28058103 -46.57321167 101.27497864 C-47.89193268 101.26794418 -49.21065369 101.26090973 -50.56933594 101.25366211 C-52.31970657 101.24844292 -52.31970657 101.24844292 -54.10543823 101.24311829 C-56.72216797 101.11181641 -56.72216797 101.11181641 -57.72216797 100.11181641 C-58.67597888 89.51123432 -58.57322498 80.8247318 -51.72216797 72.11181641 C-49.79057415 70.05535187 -47.78836511 68.11529524 -45.73388672 66.18212891 C-34.61576866 54.74018216 -28.5914544 37.88252538 -28.74169922 22.12744141 C-28.73630127 21.24008301 -28.73090332 20.35272461 -28.7253418 19.43847656 C-28.7232666 17.67200854 -28.76433846 15.90482947 -28.85375977 14.140625 C-28.8440287 10.46516405 -28.53477343 8.09123311 -26.14990234 5.21679688 C-18.54437112 -0.41674316 -9.06292474 -0.00481473 0 0 Z " fill="#B6E446" transform="translate(412.72216796875,159.88818359375)"/>
<path d="M0 0 C0.80147461 0.01353516 1.60294922 0.02707031 2.42871094 0.04101562 C3.03489258 0.05841797 3.64107422 0.07582031 4.265625 0.09375 C4.26893515 0.81858267 4.27224529 1.54341534 4.27565575 2.29021263 C4.35679229 19.90770515 4.44885376 37.52510639 4.55315208 55.14247704 C4.60332461 63.66202362 4.64976688 72.18156036 4.6875 80.70117188 C4.72038847 88.12480953 4.76020205 95.54837179 4.80841506 102.97192633 C4.83371149 106.90450264 4.85548334 110.83702874 4.86896896 114.76966476 C4.88176098 118.46817568 4.90378398 122.16651464 4.93300819 125.86493111 C4.94645762 127.87554244 4.950011 129.88621226 4.95332336 131.89686584 C4.96448685 133.08601089 4.97565033 134.27515594 4.9871521 135.50033569 C4.99268286 136.53827459 4.99821362 137.57621349 5.00391197 138.64560509 C5.02557328 141.27232318 5.02557328 141.27232318 7.265625 143.09375 C10.10171747 143.39861523 10.10171747 143.39861523 13.46850586 143.34912109 C15.42710793 143.35955948 15.42710793 143.35955948 17.42527771 143.37020874 C18.12610411 143.3695277 18.8269305 143.36884666 19.54899406 143.36814499 C21.74928439 143.36717924 23.9490867 143.38013195 26.14930725 143.39712524 C32.40622024 143.44334963 38.66308827 143.46795187 44.92016602 143.47460938 C48.74822021 143.47966435 52.57577406 143.50412577 56.40365791 143.53993607 C57.85427386 143.54965473 59.30495941 143.55210991 60.75559807 143.54676437 C74.26079558 143.49938886 83.78431339 146.29449767 94.515625 154.53125 C96.02081617 155.6549709 97.52602427 156.77866914 99.03125 157.90234375 C101.10178175 159.45524256 103.16296764 161.0125966 105.19335938 162.61767578 C107.91160348 164.70337714 109.74922064 166.03881337 113.203125 166.40625 C113.88375 166.303125 114.564375 166.2 115.265625 166.09375 C115.58015625 165.50207031 115.8946875 164.91039062 116.21875 164.30078125 C121.07782629 155.32905305 126.18472933 149.06352909 135.81933594 145.02270508 C140.23379232 143.83277829 144.27163288 143.84420908 148.8203125 143.8984375 C150.17263474 143.90268234 150.17263474 143.90268234 151.55227661 143.90701294 C154.41519776 143.91815561 157.27779934 143.9432492 160.140625 143.96875 C162.08853713 143.97878745 164.03645419 143.98791196 165.984375 143.99609375 C170.7449137 144.01807557 175.50521527 144.0525645 180.265625 144.09375 C180.37454617 150.72010898 179.49252034 154.03028163 175.265625 159.09375 C170.65410011 162.69073941 167.13016303 164.18826896 161.3359375 164.3046875 C160.37558594 164.33304688 159.41523438 164.36140625 158.42578125 164.390625 C156.41033768 164.44250257 154.39468507 164.48683451 152.37890625 164.5234375 C145.29471793 164.66071968 145.29471793 164.66071968 139.265625 168.09375 C136.17006325 171.42261002 135.90621295 173.72617508 135.9296875 178.21484375 C135.91679687 179.39755859 135.90390625 180.58027344 135.890625 181.79882812 C135.890625 184.28321541 135.89841313 186.76761513 135.9140625 189.25195312 C135.78147795 199.40019525 135.78147795 199.40019525 133.0390625 202.50390625 C130.265625 204.09375 130.265625 204.09375 127.93359375 204.234375 C124.09906007 202.5950136 120.92949028 200.30553629 117.578125 197.84375 C116.83626953 197.30943359 116.09441406 196.77511719 115.33007812 196.22460938 C112.96953372 194.52208407 110.61748107 192.80825065 108.265625 191.09375 C106.75975218 190.00432646 105.25325095 188.91577098 103.74609375 187.828125 C101.50758746 186.21234641 99.26923819 184.59636312 97.03222656 182.97851562 C91.64367874 179.0822172 86.2460663 175.19909192 80.828125 171.34375 C80.11205078 170.83005859 79.39597656 170.31636719 78.65820312 169.78710938 C77.99369141 169.31595703 77.32917969 168.84480469 76.64453125 168.359375 C76.0626001 167.94461914 75.48066895 167.52986328 74.88110352 167.10253906 C71.13557662 164.76363667 67.74852917 164.99448675 63.45849609 165.04370117 C62.42613831 165.05311989 62.42613831 165.05311989 61.3729248 165.06272888 C59.87840186 165.07657456 58.38389715 165.0925092 56.88941574 165.11028099 C54.51755771 165.13696064 52.14579365 165.15480671 49.77383423 165.16975403 C43.02955152 165.21244816 36.28545237 165.25982873 29.54150391 165.34057617 C25.41426907 165.38934654 21.28729502 165.41816653 17.15980911 165.43432045 C15.59301065 165.44416656 14.02623918 165.46129782 12.45960617 165.48610497 C-5.68262583 165.76681749 -5.68262583 165.76681749 -12.33779907 159.61051941 C-16.1051309 155.35036298 -16.85808371 151.9943172 -16.88827515 146.47187805 C-16.89687561 145.30133377 -16.90547607 144.13078949 -16.91433716 142.92477417 C-16.91859711 141.63902496 -16.92285706 140.35327576 -16.92724609 139.02856445 C-16.9351492 137.66180717 -16.94341828 136.29505197 -16.95202637 134.92829895 C-16.97822579 130.4378966 -16.99355348 125.94748502 -17.0078125 121.45703125 C-17.01317333 119.90973594 -17.01855084 118.36244069 -17.02394485 116.81514549 C-17.04557193 110.37698963 -17.06430713 103.93883625 -17.07556725 97.50065327 C-17.09179676 88.28250211 -17.12495185 79.0647731 -17.18196809 69.84678108 C-17.22071348 63.36087427 -17.24020544 56.87508015 -17.24548781 50.38906068 C-17.24913547 46.51762306 -17.26109323 42.64663589 -17.29359055 38.77532387 C-17.32375221 35.12998612 -17.32995484 31.48536944 -17.31820679 27.8399334 C-17.31788222 25.87334296 -17.3422948 23.9067965 -17.36758423 21.94036865 C-17.31731998 14.78218558 -16.71121612 9.50525625 -11.734375 4.09375 C-8.02766303 0.85079868 -4.89855189 -0.10766048 0 0 Z " fill="#EFE9E6" transform="translate(16.734375,108.90625)"/>
<path d="M0 0 C1.29228516 -0.00193359 2.58457031 -0.00386719 3.91601562 -0.00585938 C4.58592529 0.00662842 5.25583496 0.01911621 5.94604492 0.03198242 C7.96612718 0.06603282 9.98175942 0.05270163 12.00195312 0.03320312 C21.20308117 0.10169787 29.10510963 1.26541892 36.61328125 6.87890625 C42.65314829 13.05923532 45.44210066 18.76869097 45.48828125 27.44140625 C45.50246094 28.64410156 45.51664062 29.84679687 45.53125 31.0859375 C45.30078125 34.62890625 45.30078125 34.62890625 43.30078125 40.62890625 C53.20078125 40.62890625 63.10078125 40.62890625 73.30078125 40.62890625 C73.30078125 32.70890625 73.30078125 24.78890625 73.30078125 16.62890625 C69.34078125 16.62890625 65.38078125 16.62890625 61.30078125 16.62890625 C58.05078125 15.12890625 58.05078125 15.12890625 56.30078125 12.62890625 C55.67498851 9.82719196 55.51584122 7.40055658 56.30078125 4.62890625 C57.967968 2.23398147 59.28670239 0.82093397 62.22019958 0.26544189 C64.6622254 0.13172362 67.07412978 0.12727669 69.51953125 0.16796875 C70.41442261 0.16888519 71.30931396 0.16980164 72.23132324 0.17074585 C74.12090365 0.17678028 76.01047457 0.19252159 77.89990234 0.21728516 C80.79039808 0.25377517 83.67961055 0.25830453 86.5703125 0.2578125 C88.40756315 0.26764476 90.24480512 0.27930224 92.08203125 0.29296875 C92.94566284 0.2951944 93.80929443 0.29742004 94.69909668 0.29971313 C95.50673462 0.31247284 96.31437256 0.32523254 97.14648438 0.33837891 C97.85389771 0.3460025 98.56131104 0.3536261 99.29016113 0.36148071 C101.68844332 0.68046782 103.2527556 1.34505377 105.30078125 2.62890625 C107.30078125 5.62890625 107.30078125 5.62890625 107.23828125 9.06640625 C106.30078125 12.62890625 106.30078125 12.62890625 104.48828125 15.06640625 C100.93998243 16.80576842 99.00462184 16.79227057 95.1015625 16.7265625 C94.01657471 16.71246338 92.93158691 16.69836426 91.8137207 16.68383789 C90.98445068 16.66571045 90.15518066 16.64758301 89.30078125 16.62890625 C89.30522247 17.53457336 89.3096637 18.44024048 89.3142395 19.37335205 C89.35430981 27.90745836 89.38476242 36.44153308 89.40440559 44.97571182 C89.41484382 49.36324323 89.42900374 53.75069692 89.45166016 58.13818359 C89.47338714 62.3721671 89.48534959 66.60607583 89.49053574 70.84011078 C89.49423175 72.45564704 89.5014491 74.07117921 89.51224136 75.68668365 C89.52675443 77.94909008 89.52875928 80.21118734 89.52783203 82.47363281 C89.53227325 83.76158752 89.53671448 85.04954224 89.54129028 86.37652588 C89.31295987 89.46421589 89.05524693 91.12007555 87.30078125 93.62890625 C83.77505318 95.97939163 82.4506448 96.29288442 78.30078125 95.62890625 C74.74804498 92.2561666 73.46464098 90.72651976 72.7331543 85.82666016 C72.73393559 84.41934802 72.76157837 83.01185954 72.8125 81.60546875 C72.81957474 80.85929291 72.82664948 80.11311707 72.8339386 79.34432983 C72.86174948 76.97980033 72.92445325 74.61770995 72.98828125 72.25390625 C73.01338175 70.64326357 73.03619186 69.03258346 73.05664062 67.421875 C73.10726713 63.48920845 73.20511723 59.56176024 73.30078125 55.62890625 C63.40078125 55.62890625 53.50078125 55.62890625 43.30078125 55.62890625 C44.29078125 58.10390625 44.29078125 58.10390625 45.30078125 60.62890625 C46.3535901 70.76525189 44.94517129 77.90200762 39.55078125 86.37890625 C33.77371871 92.15596879 26.75448647 95.84408434 18.52758789 95.95825195 C17.8133667 95.95269287 17.09914551 95.94713379 16.36328125 95.94140625 C15.24264282 95.93403442 15.24264282 95.93403442 14.09936523 95.92651367 C-0.44887141 95.62519597 -13.25646266 91.77573749 -23.9609375 81.6796875 C-25.69921875 79.62890625 -25.69921875 79.62890625 -27.07421875 75.94140625 C-26.69921875 72.62890625 -26.69921875 72.62890625 -24.69921875 69.62890625 C-21.69921875 67.62890625 -21.69921875 67.62890625 -18.38671875 67.44140625 C-15.02641455 68.52353811 -13.60043862 69.31609298 -10.94921875 71.44140625 C-3.35673083 77.43167713 4.18747925 78.97662365 13.67578125 79.06640625 C14.44905762 79.07655762 15.22233398 79.08670898 16.01904297 79.09716797 C20.57539684 79.02673446 23.60156192 78.55716018 27.30078125 75.62890625 C29.37620193 71.97221267 29.80988058 68.78655079 29.30078125 64.62890625 C27.1675605 60.66721057 25.54205067 58.18830246 21.30078125 56.62890625 C17.97497743 56.32635698 17.97497743 56.32635698 14.26953125 56.35546875 C12.88801264 56.33518635 11.50650227 56.3143357 10.125 56.29296875 C7.95907594 56.2703507 5.79347826 56.25388656 3.62744141 56.24804688 C1.52838036 56.23851652 -0.56923288 56.20474845 -2.66796875 56.16796875 C-3.92029297 56.15975098 -5.17261719 56.1515332 -6.46289062 56.14306641 C-10.23843366 55.54324039 -11.41403097 54.63066562 -13.69921875 51.62890625 C-14.47166842 48.66974243 -14.09702017 46.76159247 -13.69921875 43.62890625 C-11.36021656 41.10422922 -9.93215319 40.65572051 -6.49462891 40.26000977 C-5.25503418 40.25928467 -4.01543945 40.25855957 -2.73828125 40.2578125 C-1.36588296 40.24042715 0.00651282 40.2228428 1.37890625 40.20507812 C3.52706616 40.19502395 5.67505976 40.19140568 7.82324219 40.19311523 C9.90739566 40.18952517 11.99029105 40.16211132 14.07421875 40.1328125 C15.93699463 40.13003296 15.93699463 40.13003296 17.83740234 40.12719727 C22.47129097 39.46050005 25.82378481 37.57585611 28.67578125 33.81640625 C29.90749326 29.5054142 29.87484957 25.92055997 28.05078125 21.81640625 C26.13258134 19.41865636 25.13937797 18.71247119 22.30078125 17.62890625 C19.18649385 17.34308149 19.18649385 17.34308149 15.7421875 17.390625 C13.83276367 17.36645508 13.83276367 17.36645508 11.88476562 17.34179688 C9.8724057 17.3253484 7.86081031 17.31641493 5.84838867 17.32348633 C3.8962281 17.32611437 1.94410989 17.29623177 -0.0078125 17.265625 C-1.17111084 17.26264404 -2.33440918 17.25966309 -3.53295898 17.2565918 C-7.63016794 16.44435306 -9.12133026 14.84718652 -11.69921875 11.62890625 C-12.32421875 8.62890625 -12.32421875 8.62890625 -11.69921875 5.62890625 C-8.0578022 1.08101387 -5.78236585 -0.00359277 0 0 Z " fill="#FAF6F4" transform="translate(299.69921875,293.37109375)"/>
<path d="M0 0 C2.203125 1.484375 2.203125 1.484375 4 4 C4.48299309 6.93373582 4.37775294 9.7871144 4.25 12.75 C4.23195313 13.54277344 4.21390625 14.33554687 4.1953125 15.15234375 C4.14833082 17.10208348 4.07659044 19.05119878 4 21 C5.31194336 20.97905273 6.62388672 20.95810547 7.97558594 20.93652344 C12.84331344 20.8641203 17.71099335 20.81819887 22.57910156 20.78027344 C24.68595382 20.76015874 26.79275025 20.73286333 28.89941406 20.69824219 C31.92787447 20.64971832 34.95559678 20.62702984 37.984375 20.609375 C39.39707672 20.57840729 39.39707672 20.57840729 40.83831787 20.54681396 C47.35902508 20.54457681 47.35902508 20.54457681 50.59082031 22.84082031 C52.55292097 25.84719908 52.64718335 27.4764462 52 31 C49.94685279 33.85437539 48.37333454 35.74895377 44.80834961 36.40063477 C42.25083228 36.49202013 39.74349875 36.43639256 37.1875 36.3125 C36.30384766 36.28994141 35.42019531 36.26738281 34.50976562 36.24414062 C32.3391109 36.18547428 30.1693331 36.09579979 28 36 C27.86271484 36.91978638 27.86271484 36.91978638 27.72265625 37.8581543 C25.22298897 53.70751938 16.86110488 67.90525612 8 81 C19.74380835 90.78310296 32.52710275 97.53050957 46.3125 104.02734375 C48 105 48 105 49 107 C49.35519903 110.83614957 49.54724594 113.14629634 47.4375 116.4375 C44.0250431 118.62497237 42.03780908 118.35793328 38 118 C34.80166177 116.93050699 31.82883843 115.50073084 28.8125 114 C27.97533447 113.59209229 27.13816895 113.18418457 26.27563477 112.76391602 C15.5492443 107.4291467 6.20339966 100.65592538 -3 93 C-3.46148437 93.35191406 -3.92296875 93.70382813 -4.3984375 94.06640625 C-6.58906342 95.72452824 -8.79301152 97.36372213 -11 99 C-12.10408203 99.82951172 -12.10408203 99.82951172 -13.23046875 100.67578125 C-23.55825043 108.2010493 -36.61106116 116.43517686 -49.375 118.5625 C-52 118 -52 118 -54.375 115.875 C-56.31339525 112.44553149 -56.80573518 110.86752888 -56 107 C-51.27485308 102.30548612 -45.97568016 99.97053255 -39.9375 97.3125 C-31.23952631 93.32646489 -22.66101621 89.04411733 -16 82 C-16 77.27932754 -17.6165655 75.14921712 -20.1875 71.4375 C-24.14287026 65.52146028 -27.2726171 59.58668361 -30 53 C-30.556875 51.80375 -31.11375 50.6075 -31.6875 49.375 C-32.76067547 46.61540595 -33.46697921 44.162795 -34.08203125 41.2890625 C-34.25581299 40.4842041 -34.42959473 39.6793457 -34.60864258 38.85009766 C-34.73779053 38.23956543 -34.86693848 37.6290332 -35 37 C-36.31355469 36.98582031 -37.62710937 36.97164062 -38.98046875 36.95703125 C-40.71618051 36.91012012 -42.45185652 36.86187279 -44.1875 36.8125 C-45.05181641 36.80669922 -45.91613281 36.80089844 -46.80664062 36.79492188 C-51.29308423 36.64021692 -53.42286505 36.43085984 -57.11328125 33.67578125 C-59 31 -59 31 -59 27.375 C-58.01504054 24.05076183 -57.64991634 23.02913645 -55 21 C-52.96882629 20.63923645 -52.96882629 20.63923645 -50.62036133 20.65942383 C-49.73967484 20.65965042 -48.85898834 20.65987701 -47.95161438 20.66011047 C-47.00465195 20.67559433 -46.05768951 20.69107819 -45.08203125 20.70703125 C-44.10965012 20.71127609 -43.13726898 20.71552094 -42.13542175 20.71989441 C-39.02750034 20.73669685 -35.92022566 20.77435221 -32.8125 20.8125 C-30.70638957 20.8275448 -28.60026898 20.84123356 -26.49414062 20.85351562 C-21.32917762 20.88660556 -16.16469849 20.93839891 -11 21 C-11.04640625 19.81921875 -11.0928125 18.6384375 -11.140625 17.421875 C-11.17814949 15.86460866 -11.21454893 14.30731492 -11.25 12.75 C-11.28351563 11.97269531 -11.31703125 11.19539063 -11.3515625 10.39453125 C-11.45009912 4.63013877 -11.45009912 4.63013877 -9.203125 1.484375 C-5.97675035 -0.68942352 -3.79873444 -0.54267635 0 0 Z " fill="#F9F5F5" transform="translate(387,23)"/>
<path d="M0 0 C7.38728102 -0.02526692 14.77455098 -0.0428316 22.16186523 -0.05493164 C24.67716895 -0.05997363 27.19246972 -0.06680703 29.70776367 -0.07543945 C33.31429775 -0.08751094 36.92079323 -0.09322949 40.52734375 -0.09765625 C42.22575661 -0.10539818 42.22575661 -0.10539818 43.95848083 -0.11329651 C45.51998619 -0.11340981 45.51998619 -0.11340981 47.11303711 -0.11352539 C48.03459091 -0.115746 48.95614471 -0.11796661 49.90562439 -0.12025452 C52 0 52 0 53 1 C53.33434468 2.87309008 53.61540583 4.75572084 53.875 6.640625 C57.80216655 33.52314385 65.42955217 58.17724748 77.01953125 82.82470703 C78 85 78 85 79 88 C78.20078125 88.01417969 77.4015625 88.02835937 76.578125 88.04296875 C59.66776732 88.77733874 47.07915993 97.25182167 34.5078125 107.984375 C32.1051143 109.91551561 29.67883709 111.48295247 27 113 C13.67148799 86.56354237 4.9713344 59.31364401 1 30 C0.86722656 29.10667969 0.73445313 28.21335937 0.59765625 27.29296875 C0.07993087 23.24336341 -0.03874507 19.20980336 -0.03051758 15.13061523 C-0.0295105 14.24458618 -0.02850342 13.35855713 -0.02746582 12.44567871 C-0.02353821 11.07844666 -0.02353821 11.07844666 -0.01953125 9.68359375 C-0.01741638 8.28699524 -0.01741638 8.28699524 -0.01525879 6.86218262 C-0.01159191 4.57478189 -0.00646128 2.28739425 0 0 Z " fill="#6FBBC6" transform="translate(35,273)"/>
<path d="M0 0 C4.3656154 2.79462843 5.97334437 5.42765443 7.77734375 10.2265625 C8.02154053 10.86268967 8.2657373 11.49881683 8.51733398 12.15422058 C9.33899763 14.30580214 10.13841897 16.46493872 10.9375 18.625 C11.51968453 20.16932825 12.10314139 21.71317734 12.68774414 23.2565918 C13.66199959 25.83193886 14.63393765 28.4080631 15.59983826 30.98655701 C18.12258915 37.71596206 20.70723511 44.42005816 23.31565857 51.11657715 C25.10399007 55.70793241 26.87991911 60.30405323 28.65297794 64.90132523 C29.9185682 68.18153846 31.18908417 71.45965105 32.47116089 74.73345947 C33.92466571 78.44692585 35.35184091 82.17022095 36.77734375 85.89453125 C37.21933105 87.01296921 37.66131836 88.13140717 38.11669922 89.28373718 C40.27068457 94.97398184 41.80102954 99.06585801 40 105 C37.74582958 107.5881216 36.39479021 107.94242643 33 108.4375 C30 108 30 108 26 104 C23.69 98.06 21.38 92.12 19 86 C4.15 86 -10.7 86 -26 86 C-29.96 95.9 -29.96 95.9 -34 106 C-37.51824511 108.34549674 -38.85775694 108.57991403 -43 108 C-45.9375 106 -45.9375 106 -48 103 C-47.70235785 97.06101002 -46.17503061 92.10654766 -44 86.61328125 C-43.69221619 85.81377548 -43.38443237 85.01426971 -43.06732178 84.1905365 C-42.05320403 81.56121807 -41.02672899 78.93691658 -40 76.3125 C-38.9181092 73.52048762 -37.83915898 70.72735059 -36.76043701 67.93411255 C-36.00761055 65.98520417 -35.25372758 64.03670361 -34.49884033 62.08859253 C-31.71328538 54.88915921 -28.99145307 47.66752059 -26.296875 40.43359375 C-25.52868455 38.37653177 -24.76045582 36.31948408 -23.9921875 34.26245117 C-22.87600228 31.27286313 -21.76203587 28.2825494 -20.65527344 25.28945923 C-19.62604674 22.50805045 -18.58740841 19.73031995 -17.546875 16.953125 C-17.24642273 16.13303452 -16.94597046 15.31294403 -16.63641357 14.46800232 C-13.39308249 5.86589572 -10.33027547 -1.06864919 0 0 Z " fill="#ABD8DE" transform="translate(102,137)"/>
<path d="M0 0 C12.27835399 11.73543357 21.13316039 28.67056474 22.23828125 45.6640625 C22.44677026 56.79079198 21.23818451 67.0146675 14 76 C13.67 76 13.34 76 13 76 C12.90203125 75.34773438 12.8040625 74.69546875 12.703125 74.0234375 C11.75909298 68.50573312 10.79854151 64.31185793 7 60 C1.68545589 56.37034722 -2.04949762 55.41146877 -8.41381836 55.45410156 C-9.62967117 55.43859505 -9.62967117 55.43859505 -10.87008667 55.42277527 C-13.52687823 55.39347537 -16.18290372 55.39185085 -18.83984375 55.390625 C-20.69073427 55.37563466 -22.54161146 55.35890572 -24.39247131 55.34051514 C-29.24708693 55.29692521 -34.10152211 55.27686107 -38.95629883 55.26177979 C-43.91693758 55.24217854 -48.87738233 55.20021192 -53.83789062 55.16015625 C-63.55853379 55.0849447 -73.27913335 55.03459842 -83 55 C-82.04340623 53.88016 -81.08627025 52.76078315 -80.12890625 51.64160156 C-79.59595947 51.01819885 -79.0630127 50.39479614 -78.51391602 49.75250244 C-67.46847107 36.96634454 -17.00198878 -8.31434581 0 0 Z " fill="#94CCD3" transform="translate(184,54)"/>
<path d="M0 0 C2.79432081 3.37769656 5.30533264 6.80946019 7.6640625 10.50390625 C8.14415771 11.25220703 8.62425293 12.00050781 9.11889648 12.77148438 C15.02632127 22.24254593 19.58346866 32.5738492 21.2265625 43.69140625 C21.33613281 44.41457031 21.44570312 45.13773438 21.55859375 45.8828125 C21.85461025 48.15227237 22.06295551 50.40869923 22.2265625 52.69140625 C22.28070313 53.42617187 22.33484375 54.1609375 22.390625 54.91796875 C22.97446349 70.78776041 18.35198612 86.02396238 7.8515625 98.06640625 C3.55944482 102.52076893 -0.93791996 106.82730964 -5.7734375 110.69140625 C-6.1034375 110.69140625 -6.4334375 110.69140625 -6.7734375 110.69140625 C-6.92011128 106.23342581 -7.00797125 101.77607571 -7.0859375 97.31640625 C-7.1487793 95.43888672 -7.1487793 95.43888672 -7.21289062 93.5234375 C-7.30838326 86.22780043 -6.6684888 81.18147013 -3.00732422 74.83862305 C2.11341808 65.92747771 1.30903868 53.51263263 -0.7734375 43.69140625 C-3.87243597 32.9403784 -9.46788421 22.16996387 -16.7734375 13.69140625 C-21.7734375 7.83388646 -21.7734375 7.83388646 -21.7734375 5.69140625 C-18.7270097 4.39938848 -15.66013739 3.16570468 -12.5859375 1.94140625 C-11.72162109 1.57402344 -10.85730469 1.20664062 -9.96679688 0.828125 C-3.55531942 -1.67750987 -3.55531942 -1.67750987 0 0 Z " fill="#AAD641" transform="translate(204.7734375,46.30859375)"/>
<path d="M0 0 C-0.47115293 4.56617358 -0.94921916 9.13135767 -1.44140625 13.6953125 C-1.79411716 16.97974699 -2.11684073 20.26377485 -2.40234375 23.5546875 C-4.11896428 42.16724588 -10.90310545 55.71826788 -23.69140625 69.28515625 C-29.64799981 76.28994902 -32.1726247 83.61491875 -32.0625 92.6875 C-32.05798828 93.38939453 -32.05347656 94.09128906 -32.04882812 94.81445312 C-32.03706927 96.54300538 -32.01913454 98.27151365 -32 100 C-35.31248187 100.02888146 -38.62493167 100.04675799 -41.9375 100.0625 C-42.88302734 100.07087891 -43.82855469 100.07925781 -44.80273438 100.08789062 C-46.15141602 100.09272461 -46.15141602 100.09272461 -47.52734375 100.09765625 C-48.35999756 100.10289307 -49.19265137 100.10812988 -50.05053711 100.11352539 C-52 100 -52 100 -53 99 C-53.95381092 88.39941792 -53.85105702 79.7129154 -47 71 C-45.06840618 68.94353546 -43.06619714 67.00347884 -41.01171875 65.0703125 C-29.89360069 53.62836576 -23.86928643 36.77070897 -24.01953125 21.015625 C-24.05027952 7.5036053 -24.05027952 7.5036053 -21.171875 3.3828125 C-14.75041424 -0.94649491 -7.46982777 -0.63224248 0 0 Z " fill="#AAD542" transform="translate(408,161)"/>
<path d="M0 0 C1.08667969 1.10408203 1.08667969 1.10408203 2.1953125 2.23046875 C17.00478627 16.85430845 34.3865941 26.25267655 55.46728516 26.3190918 C66.32850116 26.12860883 76.75853139 23.30057762 86.1796875 17.85546875 C86.78039062 17.57316406 87.38109375 17.29085937 88 17 C88.66 17.33 89.32 17.66 90 18 C80.0891556 29.67447629 68.77159091 39.67553688 53 42 C36.27592033 43.09193719 22.35326675 41.24030048 8 32 C7.31180176 31.64953613 6.62360352 31.29907227 5.91455078 30.93798828 C3.43803434 29.48253502 1.78858075 28.26024444 0 26 C-0.98481257 21.50540712 -0.75765832 17.19843521 -0.5 12.625 C-0.46390625 11.41199219 -0.4278125 10.19898438 -0.390625 8.94921875 C-0.29656769 5.96289924 -0.16526792 2.98308598 0 0 Z " fill="#AAD642" transform="translate(198,182)"/>
<path d="M0 0 C3.41420061 1.9492634 6.34071704 4.05965983 9.3125 6.625 C14.97841434 11.24674281 21.15665467 14.64450005 27.55859375 18.1171875 C31 20 31 20 34 22 C33.27522461 22.00410889 32.55044922 22.00821777 31.80371094 22.01245117 C28.45170066 22.0457793 25.10141516 22.11646457 21.75 22.1875 C20.61046875 22.19330078 19.4709375 22.19910156 18.296875 22.20507812 C5.59361714 22.52987733 -3.60710303 27.07657746 -13.5625 34.6875 C-15.10539754 35.83733514 -16.64836335 36.98707869 -18.19140625 38.13671875 C-18.85342041 38.63905029 -19.51543457 39.14138184 -20.19750977 39.65893555 C-24.66371667 42.98182252 -24.66371667 42.98182252 -27.3125 43.125 C-30.93462328 41.60876235 -32.18504518 39.30810839 -34.3828125 36.13671875 C-36.4506755 33.40454227 -38.82813614 31.36830465 -41.484375 29.2265625 C-43 28 -43 28 -45 26 C-43.9584375 25.59910156 -42.916875 25.19820312 -41.84375 24.78515625 C-26.17012703 18.62522514 -12.52077021 11.35880479 0 0 Z " fill="#DC4A56" transform="translate(383,115)"/>
<path d="M0 0 C0.99 0.495 0.99 0.495 2 1 C1.154375 1.71285156 0.30875 2.42570312 -0.5625 3.16015625 C-3.51694298 5.65261273 -6.46488076 8.15265512 -9.41113281 10.65478516 C-10.64143611 11.69642179 -11.87803954 12.73061962 -13.1171875 13.76171875 C-24.00959954 22.98396094 -33.93449201 33.30326692 -42.53515625 44.68359375 C-42.94314453 45.20743652 -43.35113281 45.7312793 -43.77148438 46.27099609 C-45.07264196 48.01948061 -45.07264196 48.01948061 -46.13476562 50.17041016 C-47.56907595 52.65409531 -48.7168547 54.24570818 -51 56 C-55.82425574 56.98718531 -60.47704822 56.75545987 -65.375 56.5 C-66.68339844 56.46390625 -67.99179688 56.4278125 -69.33984375 56.390625 C-72.56289345 56.29652136 -75.77993848 56.16516394 -79 56 C-59.08819629 32.52066479 -29.33070538 10.10888488 0 0 Z " fill="#6FBBC6" transform="translate(180,53)"/>
<path d="M0 0 C2.05331208 2.05331208 2.60754614 3.20475836 3.60400391 5.8671875 C3.90416412 6.66141113 4.20432434 7.45563477 4.51358032 8.27392578 C4.83136444 9.13228027 5.14914856 9.99063477 5.4765625 10.875 C5.80667328 11.75526855 6.13678406 12.63553711 6.47689819 13.54248047 C7.17373833 15.40429638 7.86789284 17.26711933 8.55957031 19.13085938 C9.62159065 21.99081882 10.69291584 24.84715989 11.765625 27.703125 C12.44065886 29.51020956 13.1151563 31.31749461 13.7890625 33.125 C14.11089508 33.98335449 14.43272766 34.84170898 14.76431274 35.72607422 C15.05816864 36.52029785 15.35202454 37.31452148 15.65478516 38.1328125 C15.91522614 38.83293457 16.17566711 39.53305664 16.44400024 40.25439453 C17 42 17 42 17 44 C6.11 44 -4.78 44 -16 44 C-14.17496189 37.91653964 -12.36256638 32.00563833 -10.1171875 26.09375 C-9.85745148 25.40236938 -9.59771545 24.71098877 -9.33010864 23.99865723 C-8.78884547 22.55971761 -8.24602365 21.12136335 -7.70166016 19.68359375 C-6.86662004 17.47786464 -6.03643876 15.27035257 -5.20703125 13.0625 C-4.67735947 11.65614597 -4.14742148 10.24989216 -3.6171875 8.84375 C-3.3692746 8.18548218 -3.12136169 7.52721436 -2.86593628 6.84899902 C-1.98344091 4.52020143 -1.1145752 2.22915041 0 0 Z " fill="#F8F7F7" transform="translate(98,163)"/>
<path d="M0 0 C10.23 0 20.46 0 31 0 C28.74809673 10.13356471 28.74809673 10.13356471 27.1953125 13.38671875 C26.69064453 14.4530957 26.69064453 14.4530957 26.17578125 15.54101562 C25.82902344 16.24935547 25.48226563 16.95769531 25.125 17.6875 C24.78597656 18.40744141 24.44695312 19.12738281 24.09765625 19.86914062 C22.03467262 24.17159887 19.74234973 28.09553345 17 32 C13.58229288 30.60696446 12.24529716 29.27928642 10.52734375 26.03515625 C10.10259766 25.23400391 9.67785156 24.43285156 9.24023438 23.60742188 C8.59538086 22.34768555 8.59538086 22.34768555 7.9375 21.0625 C7.50373047 20.25748047 7.06996094 19.45246094 6.62304688 18.62304688 C3.34630811 12.33390291 1.93790084 7.10563643 0 0 Z " fill="#DC4A56" transform="translate(368,59)"/>
</svg>
