<?xml version="1.0" encoding="UTF-8"?>
<!DOCTYPE svg PUBLIC "-//W3C//DTD SVG 1.1//EN" "http://www.w3.org/Graphics/SVG/1.1/DTD/svg11.dtd">
<svg xmlns="http://www.w3.org/2000/svg" version="1.1" width="520px" height="520px" style="shape-rendering:geometricPrecision; text-rendering:geometricPrecision; image-rendering:optimizeQuality; fill-rule:evenodd; clip-rule:evenodd" xmlns:xlink="http://www.w3.org/1999/xlink">
<g><path style="opacity:1" fill="#fefefe" d="M -0.5,-0.5 C 172.833,-0.5 346.167,-0.5 519.5,-0.5C 519.5,172.833 519.5,346.167 519.5,519.5C 346.167,519.5 172.833,519.5 -0.5,519.5C -0.5,346.167 -0.5,172.833 -0.5,-0.5 Z"/></g>
<g><path style="opacity:1" fill="#48ddb0" d="M 299.5,175.5 C 272.833,175.5 246.167,175.5 219.5,175.5C 225.469,163.565 231.969,151.898 239,140.5C 247.527,131.608 257.694,129.108 269.5,133C 273.44,134.886 276.94,137.386 280,140.5C 287.031,151.898 293.531,163.565 299.5,175.5 Z"/></g>
<g><path style="opacity:1" fill="#246575" d="M 214.5,181.5 C 213.552,184.14 212.552,186.807 211.5,189.5C 209.347,191.794 207.68,194.46 206.5,197.5C 203.469,201.887 200.803,206.554 198.5,211.5C 196.44,214.24 194.774,217.24 193.5,220.5C 191.012,223.466 189.012,226.799 187.5,230.5C 184.677,234.136 182.344,238.136 180.5,242.5C 178.929,244.635 177.596,246.968 176.5,249.5C 172.059,254.363 171.392,259.697 174.5,265.5C 175.584,268.004 176.917,270.337 178.5,272.5C 180.664,277.5 183.331,282.167 186.5,286.5C 187.917,289.669 189.583,292.669 191.5,295.5C 193.93,300.037 196.597,304.37 199.5,308.5C 202.72,315.271 206.22,321.937 210,328.5C 211.609,331.037 213.775,332.704 216.5,333.5C 216.443,334.609 216.11,335.609 215.5,336.5C 214.833,336.5 214.5,336.833 214.5,337.5C 203.313,351.328 190.313,353.161 175.5,343C 160.356,318.545 145.856,293.711 132,268.5C 131.333,262.5 131.333,256.5 132,250.5C 132.725,248.051 133.725,245.717 135,243.5C 146.933,223.298 158.6,202.964 170,182.5C 180.013,168.629 192.513,165.795 207.5,174C 210.378,176.043 212.711,178.543 214.5,181.5 Z"/></g>
<g><path style="opacity:1" fill="#246575" d="M 304.5,337.5 C 306.554,332.391 308.887,327.391 311.5,322.5C 313.988,319.534 315.988,316.201 317.5,312.5C 321.53,306.447 325.197,300.114 328.5,293.5C 330.863,290.451 332.863,287.118 334.5,283.5C 338.226,277.76 341.56,271.76 344.5,265.5C 347.455,259.803 346.788,254.47 342.5,249.5C 340.656,245.136 338.323,241.136 335.5,237.5C 332.528,232.184 329.528,226.85 326.5,221.5C 324.07,216.963 321.403,212.63 318.5,208.5C 315.614,202.396 312.447,196.396 309,190.5C 307.64,187.977 305.807,185.977 303.5,184.5C 303.557,183.391 303.89,182.391 304.5,181.5C 315.633,167.674 328.633,165.841 343.5,176C 345.452,178.074 347.285,180.241 349,182.5C 360.4,202.964 372.067,223.298 384,243.5C 389.201,255.552 388.534,267.219 382,278.5C 369.796,300.414 356.963,321.914 343.5,343C 328.633,353.159 315.633,351.326 304.5,337.5 Z"/></g>
<g><path style="opacity:1" fill="#45d6ad" d="M 219.5,175.5 C 246.167,175.5 272.833,175.5 299.5,175.5C 301.167,177.5 302.833,179.5 304.5,181.5C 303.89,182.391 303.557,183.391 303.5,184.5C 302.407,186.349 301.074,188.016 299.5,189.5C 270.167,189.5 240.833,189.5 211.5,189.5C 212.552,186.807 213.552,184.14 214.5,181.5C 216.167,179.5 217.833,177.5 219.5,175.5 Z"/></g>
<g><path style="opacity:1" fill="#43d0aa" d="M 211.5,189.5 C 240.833,189.5 270.167,189.5 299.5,189.5C 298.358,193.117 296.692,196.45 294.5,199.5C 264.814,200.159 235.481,199.492 206.5,197.5C 207.68,194.46 209.347,191.794 211.5,189.5 Z"/></g>
<g><path style="opacity:1" fill="#42cba8" d="M 206.5,197.5 C 235.481,199.492 264.814,200.159 294.5,199.5C 292.642,201.883 291.308,204.55 290.5,207.5C 288.684,209.118 287.351,211.118 286.5,213.5C 257.069,212.841 227.736,212.174 198.5,211.5C 200.803,206.554 203.469,201.887 206.5,197.5 Z"/></g>
<g><path style="opacity:1" fill="#29787f" d="M 303.5,184.5 C 305.807,185.977 307.64,187.977 309,190.5C 312.447,196.396 315.614,202.396 318.5,208.5C 308.985,208.827 299.652,208.494 290.5,207.5C 291.308,204.55 292.642,201.883 294.5,199.5C 296.692,196.45 298.358,193.117 299.5,189.5C 301.074,188.016 302.407,186.349 303.5,184.5 Z"/></g>
<g><path style="opacity:1" fill="#3fc4a5" d="M 198.5,211.5 C 227.736,212.174 257.069,212.841 286.5,213.5C 284.914,215.67 283.58,218.004 282.5,220.5C 252.833,220.5 223.167,220.5 193.5,220.5C 194.774,217.24 196.44,214.24 198.5,211.5 Z"/></g>
<g><path style="opacity:1" fill="#2d8586" d="M 290.5,207.5 C 299.652,208.494 308.985,208.827 318.5,208.5C 321.403,212.63 324.07,216.963 326.5,221.5C 311.833,221.5 297.167,221.5 282.5,221.5C 282.5,221.167 282.5,220.833 282.5,220.5C 283.58,218.004 284.914,215.67 286.5,213.5C 287.351,211.118 288.684,209.118 290.5,207.5 Z"/></g>
<g><path style="opacity:1" fill="#3ebfa2" d="M 193.5,220.5 C 223.167,220.5 252.833,220.5 282.5,220.5C 282.5,220.833 282.5,221.167 282.5,221.5C 279.806,224.876 277.473,228.543 275.5,232.5C 246.069,231.841 216.736,231.174 187.5,230.5C 189.012,226.799 191.012,223.466 193.5,220.5 Z"/></g>
<g><path style="opacity:1" fill="#31928d" d="M 282.5,221.5 C 297.167,221.5 311.833,221.5 326.5,221.5C 329.528,226.85 332.528,232.184 335.5,237.5C 314.909,236.512 294.242,236.179 273.5,236.5C 274.167,235.167 274.833,233.833 275.5,232.5C 277.473,228.543 279.806,224.876 282.5,221.5 Z"/></g>
<g><path style="opacity:1" fill="#3bb79e" d="M 187.5,230.5 C 216.736,231.174 246.069,231.841 275.5,232.5C 274.833,233.833 274.167,235.167 273.5,236.5C 271.5,239.5 269.5,242.5 267.5,245.5C 238.319,245.164 209.319,244.164 180.5,242.5C 182.344,238.136 184.677,234.136 187.5,230.5 Z"/></g>
<g><path style="opacity:1" fill="#349e92" d="M 273.5,236.5 C 294.242,236.179 314.909,236.512 335.5,237.5C 338.323,241.136 340.656,245.136 342.5,249.5C 316.995,249.831 291.661,249.498 266.5,248.5C 267.11,247.609 267.443,246.609 267.5,245.5C 269.5,242.5 271.5,239.5 273.5,236.5 Z"/></g>
<g><path style="opacity:1" fill="#3ab09b" d="M 180.5,242.5 C 209.319,244.164 238.319,245.164 267.5,245.5C 267.443,246.609 267.11,247.609 266.5,248.5C 251.554,249.818 236.387,250.484 221,250.5C 205.996,250.5 191.163,250.167 176.5,249.5C 177.596,246.968 178.929,244.635 180.5,242.5 Z"/></g>
<g><path style="opacity:1" fill="#37a997" d="M 266.5,248.5 C 291.661,249.498 316.995,249.831 342.5,249.5C 346.788,254.47 347.455,259.803 344.5,265.5C 314.833,265.5 285.167,265.5 255.5,265.5C 228.5,265.5 201.5,265.5 174.5,265.5C 171.392,259.697 172.059,254.363 176.5,249.5C 191.163,250.167 205.996,250.5 221,250.5C 236.387,250.484 251.554,249.818 266.5,248.5 Z"/></g>
<g><path style="opacity:1" fill="#359f93" d="M 174.5,265.5 C 201.5,265.5 228.5,265.5 255.5,265.5C 254.404,268.032 253.071,270.365 251.5,272.5C 227.167,272.5 202.833,272.5 178.5,272.5C 176.917,270.337 175.584,268.004 174.5,265.5 Z"/></g>
<g><path style="opacity:1" fill="#3bb69e" d="M 255.5,265.5 C 285.167,265.5 314.833,265.5 344.5,265.5C 341.56,271.76 338.226,277.76 334.5,283.5C 320.349,282.167 305.849,281.501 291,281.5C 276.094,281.508 261.261,281.841 246.5,282.5C 248.153,279.193 249.82,275.86 251.5,272.5C 253.071,270.365 254.404,268.032 255.5,265.5 Z"/></g>
<g><path style="opacity:1" fill="#33978f" d="M 178.5,272.5 C 202.833,272.5 227.167,272.5 251.5,272.5C 249.82,275.86 248.153,279.193 246.5,282.5C 245.5,283.833 244.5,285.167 243.5,286.5C 224.5,286.5 205.5,286.5 186.5,286.5C 183.331,282.167 180.664,277.5 178.5,272.5 Z"/></g>
<g><path style="opacity:1" fill="#3ebfa2" d="M 334.5,283.5 C 332.863,287.118 330.863,290.451 328.5,293.5C 299.338,292.502 270.005,292.169 240.5,292.5C 241.5,290.5 242.5,288.5 243.5,286.5C 244.5,285.167 245.5,283.833 246.5,282.5C 261.261,281.841 276.094,281.508 291,281.5C 305.849,281.501 320.349,282.167 334.5,283.5 Z"/></g>
<g><path style="opacity:1" fill="#308d8a" d="M 186.5,286.5 C 205.5,286.5 224.5,286.5 243.5,286.5C 242.5,288.5 241.5,290.5 240.5,292.5C 240.068,293.71 239.401,294.71 238.5,295.5C 222.833,295.5 207.167,295.5 191.5,295.5C 189.583,292.669 187.917,289.669 186.5,286.5 Z"/></g>
<g><path style="opacity:1" fill="#2d8586" d="M 191.5,295.5 C 207.167,295.5 222.833,295.5 238.5,295.5C 236.571,300.372 233.905,304.705 230.5,308.5C 220.167,308.5 209.833,308.5 199.5,308.5C 196.597,304.37 193.93,300.037 191.5,295.5 Z"/></g>
<g><path style="opacity:1" fill="#41c9a7" d="M 240.5,292.5 C 270.005,292.169 299.338,292.502 328.5,293.5C 325.197,300.114 321.53,306.447 317.5,312.5C 288.338,311.502 259.005,311.169 229.5,311.5C 230.11,310.609 230.443,309.609 230.5,308.5C 233.905,304.705 236.571,300.372 238.5,295.5C 239.401,294.71 240.068,293.71 240.5,292.5 Z"/></g>
<g><path style="opacity:1" fill="#43d0aa" d="M 229.5,311.5 C 259.005,311.169 288.338,311.502 317.5,312.5C 315.988,316.201 313.988,319.534 311.5,322.5C 282.167,322.5 252.833,322.5 223.5,322.5C 225.246,318.673 227.246,315.007 229.5,311.5 Z"/></g>
<g><path style="opacity:1" fill="#29757d" d="M 199.5,308.5 C 209.833,308.5 220.167,308.5 230.5,308.5C 230.443,309.609 230.11,310.609 229.5,311.5C 227.246,315.007 225.246,318.673 223.5,322.5C 220.917,325.997 218.584,329.664 216.5,333.5C 213.775,332.704 211.609,331.037 210,328.5C 206.22,321.937 202.72,315.271 199.5,308.5 Z"/></g>
<g><path style="opacity:1" fill="#45d6ad" d="M 223.5,322.5 C 252.833,322.5 282.167,322.5 311.5,322.5C 308.887,327.391 306.554,332.391 304.5,337.5C 304.167,337.5 303.833,337.5 303.5,337.5C 274.338,336.502 245.005,336.169 215.5,336.5C 216.11,335.609 216.443,334.609 216.5,333.5C 218.584,329.664 220.917,325.997 223.5,322.5 Z"/></g>
<g><path style="opacity:1" fill="#47ddb0" d="M 214.5,337.5 C 214.5,336.833 214.833,336.5 215.5,336.5C 245.005,336.169 274.338,336.502 303.5,337.5C 295.678,351.139 287.845,364.806 280,378.5C 271.473,387.392 261.306,389.892 249.5,386C 245.56,384.114 242.06,381.614 239,378.5C 231.311,364.439 223.144,350.772 214.5,337.5 Z"/></g>
</svg>
